<?xml version="1.0" encoding="UTF-8"?>
<svg version="1.1" xmlns="http://www.w3.org/2000/svg" width="674" height="686">
<path d="M0 0 C2.1015625 0.05859375 2.1015625 0.05859375 4.625 0.4375 C8.09871742 0.88928406 10.93706826 0.97165233 14.375 0.3125 C18 0 18 0 20.4375 1.8125 C22 4 22 4 23 6 C23.969375 6.20625 24.93875 6.4125 25.9375 6.625 C29 8 29 8 30.5625 11.375 C31.39382069 16.0690229 30.29625852 19.97800697 28.9921875 24.49609375 C28.24444546 27.13674182 27.59320665 29.73332935 27.0078125 32.41015625 C26.84039551 33.16949463 26.67297852 33.92883301 26.50048828 34.71118164 C26.17266039 36.21039456 25.85050191 37.71086107 25.53466797 39.21264648 C24.66446007 43.08268689 23.90509279 46.20093249 21 49 C17.3125 49.75 17.3125 49.75 14 50 C14.01160156 50.79664063 14.02320312 51.59328125 14.03515625 52.4140625 C14.12478032 62.93848858 14.12478032 62.93848858 13 68 C14.32 68 15.64 68 17 68 C17.33 65.03 17.66 62.06 18 59 C20.91390191 58.08420226 22.53144179 57.83179962 25.4375 58.875 C36.18567045 67.78811696 41.6794445 85.63768044 44 99 C44.66 99 45.32 99 46 99 C46.495 100.2375 46.495 100.2375 47 101.5 C48.6808516 104.17261641 48.6808516 104.17261641 50.96533203 104.32324219 C57.80942834 104.2485944 64.2012838 103.22824543 70.875 101.75 C71.89335937 101.54503906 72.91171875 101.34007812 73.9609375 101.12890625 C74.940625 100.91621094 75.9203125 100.70351563 76.9296875 100.484375 C78.24815674 100.20158691 78.24815674 100.20158691 79.59326172 99.91308594 C82.47573025 98.81951399 83.87150807 97.18407639 86 95 C88.6875 95.125 88.6875 95.125 91 96 C91.33 96.66 91.66 97.32 92 98 C93.11375 97.95875 94.2275 97.9175 95.375 97.875 C99 98 99 98 101 100 C100.66357309 107.0649652 100.66357309 107.0649652 98.625 109.9375 C97 111 97 111 94 112 C94.66 112.33 95.32 112.66 96 113 C97.55561292 118.98816385 96.42347131 123.14165988 94.47265625 128.77734375 C94.07100502 129.99436729 94.07100502 129.99436729 93.66123962 131.23597717 C92.80886218 133.80802297 91.93608601 136.37258986 91.0625 138.9375 C90.47845352 140.6876964 89.89575664 142.43834378 89.31445312 144.18945312 C87.89186803 148.46501274 86.45095712 152.73398951 85 157 C85.78608643 157.1438916 86.57217285 157.2877832 87.38208008 157.43603516 C97.11254568 159.53221864 105.2783018 170.71192672 110.4609375 178.66015625 C114.93044668 185.81558918 118.8400921 193.17226462 122 201 C122.26570801 201.64952637 122.53141602 202.29905273 122.80517578 202.96826172 C127.39081238 214.26939258 131.37354774 225.78060563 135.18988037 237.36032104 C135.68292662 238.85384987 136.17963305 240.34617604 136.68023682 241.83718872 C139.47065159 250.17526126 141.80227642 258.12256638 142 267 C142.61246582 267.13277344 143.22493164 267.26554687 143.85595703 267.40234375 C146 268 146 268 148.3046875 269.5625 C151.7921123 271.42245989 154.20534017 271.19972789 158.125 271 C164.533459 270.67483506 164.533459 270.67483506 166.93359375 272.34765625 C168 274 168 274 167.9375 276.4375 C166.77450205 279.61636107 165.62971739 280.85537611 163 283 C160.43442514 283.84947127 158.06207048 284.50695872 155.4375 285.0625 C154.00098794 285.38924695 152.56479013 285.71737846 151.12890625 286.046875 C150.42652832 286.20478516 149.72415039 286.36269531 149.00048828 286.52539062 C146.25764986 287.17612017 143.5725118 287.99619657 140.875 288.8125 C136.94499009 289.90153889 133.9729592 290.35917025 130 289 C128.51380105 286.02760209 128.86822991 283.30380422 128.875 280 C128.87242187 278.741875 128.86984375 277.48375 128.8671875 276.1875 C129 273 129 273 130 271 C129.01 271 128.02 271 127 271 C126.6690332 270.35788574 126.33806641 269.71577148 125.99707031 269.05419922 C119.06435229 255.62056701 112.0196359 242.26178654 104.7421875 229.01171875 C101.88254707 223.80230399 99.08485415 218.5611266 96.32104492 213.30029297 C94.92274741 210.46790059 94.92274741 210.46790059 93 208 C92.27245561 211.97959934 91.83884171 215.82407565 91.70288086 219.8659668 C91.66291489 220.9970134 91.62294891 222.12806 91.58177185 223.29338074 C91.54318558 224.49980728 91.5045993 225.70623383 91.46484375 226.94921875 C91.42186661 228.1987886 91.37888947 229.44835846 91.33460999 230.73579407 C91.22162231 234.0438329 91.11210511 237.35194994 91.00421143 240.66015625 C90.91526774 243.3631328 90.82297344 246.06599002 90.73049068 248.76884747 C90.53943718 254.35318775 90.35102724 259.93761667 90.16772461 265.5222168 C90.13521103 266.51005661 90.10269745 267.49789642 90.06919861 268.51567078 C90.01829405 270.34321722 90 272.17174475 90 274 C90.639375 274.309375 91.27875 274.61875 91.9375 274.9375 C94 276 94 276 95 277 C96.58201311 277.10546754 98.16583354 277.18438364 99.75 277.25 C103.62135103 277.60547556 104.89577328 277.9264282 108.1875 280.25 C110 283 110 283 110.25 285.625 C108.7527322 288.46980882 107.23376234 289.24695142 104.29589844 290.42480469 C99.43972738 291.64142942 94.45437321 291.09933213 89.5 290.8125 C88.39785156 290.76802734 87.29570312 290.72355469 86.16015625 290.67773438 C80.47195008 290.40117693 75.38493946 289.88008662 70 288 C69.79280958 281.99147774 70.26289292 277.47421415 73 272 C72.01 271.67 71.02 271.34 70 271 C69.23170896 267.48416736 68.78446409 264.07103203 68.53515625 260.48217773 C68.45837646 259.40012558 68.38159668 258.31807343 68.30249023 257.20323181 C68.22329346 256.04175125 68.14409668 254.88027069 68.0625 253.68359375 C67.97750244 252.47615005 67.89250488 251.26870636 67.80493164 250.02467346 C67.53360047 246.1624867 67.26662921 242.30001396 67 238.4375 C66.73253429 234.60004303 66.46415298 230.76265201 66.19506836 226.92530823 C66.0280874 224.54008216 65.8621687 222.1547814 65.69750977 219.76939392 C65.19249192 212.50707969 64.61903953 205.2535135 64 198 C60.37 198.33 56.74 198.66 53 199 C53.23074219 200.50175781 53.46148437 202.00351562 53.69921875 203.55078125 C56.22461276 220.61162916 58.06959326 237.71187129 59.75 254.875 C59.86250092 256.01353424 59.97500183 257.15206848 60.09091187 258.32510376 C60.41407986 261.60954638 60.7316855 264.89447049 61.046875 268.1796875 C61.14355972 269.16723526 61.24024445 270.15478302 61.33985901 271.17225647 C61.80684894 276.13385284 62.21079548 281.01595164 62 286 C61 287 61 287 57.9375 287.0625 C56.968125 287.041875 55.99875 287.02125 55 287 C52.93567243 283.53301561 52.54383846 280.42997886 52.1484375 276.44140625 C52.01953125 275.16845703 51.890625 273.89550781 51.7578125 272.58398438 C51.6949707 271.92358154 51.63212891 271.26317871 51.56738281 270.58276367 C51.3758922 268.57186927 51.17337417 266.56233064 50.96875 264.55273438 C50.45102225 259.33055194 50 254.25288082 50 249 C30.53 249 11.06 249 -9 249 C-9.33 254.61 -9.66 260.22 -10 266 C-10.27684248 269.11971232 -10.56513987 272.20744737 -10.9375 275.3125 C-11.01162109 276.01310547 -11.08574219 276.71371094 -11.16210938 277.43554688 C-11.57865867 280.99484204 -12.1099417 283.92371264 -14 287 C-15.98 287 -17.96 287 -20 287 C-20.81817354 283.54172536 -21.05216426 280.67052746 -20.6862793 277.140625 C-20.59255539 276.2019458 -20.49883148 275.2632666 -20.40226746 274.29614258 C-20.29401138 273.29091553 -20.18575531 272.28568848 -20.07421875 271.25 C-19.96656693 270.20030029 -19.8589151 269.15060059 -19.7480011 268.0690918 C-19.51854984 265.84631298 -19.28548442 263.62390471 -19.04907227 261.40185547 C-18.69184033 258.04083601 -18.34589692 254.67880871 -18.00195312 251.31640625 C-17.01158091 241.74891006 -15.98565328 232.22149233 -14.42211914 222.72900391 C-13.70128856 218.06882795 -13.28863511 213.3832756 -12.875 208.6875 C-12.78863281 207.74455078 -12.70226562 206.80160156 -12.61328125 205.83007812 C-12.40528576 203.55368303 -12.2008672 201.27703314 -12 199 C-12.59603027 198.94158936 -13.19206055 198.88317871 -13.80615234 198.82299805 C-22.18358877 197.95633736 -28.81312792 196.49715959 -35.39453125 190.98828125 C-39.96991517 185.32192988 -41.79151713 178.83953615 -43.1875 171.8125 C-43.35185547 171.03197266 -43.51621094 170.25144531 -43.68554688 169.44726562 C-44.13533504 167.30030106 -44.57115836 165.15123427 -45 163 C-45.17781006 162.26813477 -45.35562012 161.53626953 -45.53881836 160.78222656 C-46.17017953 156.97333725 -46.1754817 153.18997738 -46.2109375 149.33984375 C-46.23898857 147.64256819 -46.26765289 145.94530268 -46.296875 144.24804688 C-46.3382167 141.58618264 -46.37512804 138.9245097 -46.40136719 136.26245117 C-46.4289551 133.68369519 -46.47480057 131.10577711 -46.5234375 128.52734375 C-46.52669037 127.73247055 -46.52994324 126.93759735 -46.53329468 126.11863708 C-46.62988597 121.77869348 -46.95214281 119.17522005 -50 116 C-53.15453248 107.97028097 -50.18952365 99.49538059 -47 92 C-45.25924686 88.77960669 -43.20644239 85.91683215 -41 83 C-40.21191936 81.92210906 -39.4241833 80.84396612 -38.63671875 79.765625 C-34.26889291 73.86311237 -29.98317533 68.36273201 -24 64 C-23.34 64 -22.68 64 -22 64 C-22 63.34 -22 62.68 -22 62 C-11.52209363 56.89172365 -11.52209363 56.89172365 -6 57 C-2.13736651 60.42118966 -0.15882627 65.37230326 2 70 C3.98 69.505 3.98 69.505 6 69 C5.4244764 65.38699075 4.06563575 63.79460595 1.5 61.25 C-2.29548069 57.07419507 -2.9096862 54.59945557 -3 49 C-2.814375 47.453125 -2.814375 47.453125 -2.625 45.875 C-3.07391384 42.43332722 -3.71876057 42.07448029 -6.3125 39.9375 C-7.23482422 39.27041016 -7.23482422 39.27041016 -8.17578125 38.58984375 C-11.18211275 35.96976469 -12.80521372 33.71580374 -13.26538086 29.66235352 C-13.36751875 26.87253716 -13.35980826 24.10368709 -13.3125 21.3125 C-13.31572266 20.35021484 -13.31894531 19.38792969 -13.32226562 18.39648438 C-13.26723281 11.26723281 -13.26723281 11.26723281 -11 9 C-7.375 8.875 -7.375 8.875 -4 9 C-3.71125 7.88625 -3.4225 6.7725 -3.125 5.625 C-2 2 -2 2 0 0 Z M-3 200 C-3.639375 204.00125 -4.27875 208.0025 -4.9375 212.125 C-5.13722412 213.35492676 -5.33694824 214.58485352 -5.54272461 215.85205078 C-5.70264893 216.87282715 -5.86257324 217.89360352 -6.02734375 218.9453125 C-6.18968506 219.96125488 -6.35202637 220.97719727 -6.51928711 222.02392578 C-7.24092971 227.99277866 -7.57164005 234.00296069 -8 240 C10.81 240 29.62 240 49 240 C49.0070378 231.3645585 49.0070378 231.3645585 48.16015625 222.96875 C47.98419922 221.74671875 47.80824219 220.5246875 47.62695312 219.265625 C47.44068359 218.02296875 47.25441406 216.7803125 47.0625 215.5 C46.78889648 213.58960938 46.78889648 213.58960938 46.50976562 211.640625 C45.86385624 205.64440239 45.86385624 205.64440239 44 200 C28.49 200 12.98 200 -3 200 Z " fill="#EFC886" transform="translate(89,308)"/>
<path d="M0 0 C0.66 0 1.32 0 2 0 C2 0.66 2 1.32 2 2 C2.97582031 1.97679687 3.95164062 1.95359375 4.95703125 1.9296875 C6.22933594 1.91164063 7.50164062 1.89359375 8.8125 1.875 C10.07707031 1.85179687 11.34164062 1.82859375 12.64453125 1.8046875 C16 2 16 2 19 4 C18.67 4.99 18.34 5.98 18 7 C19.18493042 6.97414825 20.36986084 6.94829651 21.59069824 6.92166138 C32.77201542 6.68172836 43.95353073 6.47413536 55.13603973 6.29797554 C60.88477116 6.20638125 66.6328338 6.10350858 72.38085938 5.97460938 C77.9308517 5.85057019 83.48062669 5.75648625 89.0315094 5.68291855 C91.14632037 5.64967198 93.2609919 5.60573888 95.37535095 5.55081558 C98.34366633 5.47555789 101.31021123 5.43875918 104.27929688 5.41064453 C105.14820557 5.37972214 106.01711426 5.34879974 106.91235352 5.31694031 C114.94748253 5.31530956 118.99192706 9.20457433 124.65234375 14.46484375 C134.00908334 24.58931582 140.84418557 36.2279977 146 49 C146.26570801 49.64952637 146.53141602 50.29905273 146.80517578 50.96826172 C151.39081238 62.26939258 155.37354774 73.78060563 159.18988037 85.36032104 C159.68292662 86.85384987 160.17963305 88.34617604 160.68023682 89.83718872 C163.47065159 98.17526126 165.80227642 106.12256638 166 115 C166.61246582 115.13277344 167.22493164 115.26554688 167.85595703 115.40234375 C170 116 170 116 172.3046875 117.5625 C175.7921123 119.42245989 178.20534017 119.19972789 182.125 119 C188.533459 118.67483506 188.533459 118.67483506 190.93359375 120.34765625 C192 122 192 122 191.9375 124.4375 C190.77450205 127.61636107 189.62971739 128.85537611 187 131 C184.43442514 131.84947127 182.06207048 132.50695872 179.4375 133.0625 C178.00098794 133.38924695 176.56479013 133.71737846 175.12890625 134.046875 C174.42652832 134.20478516 173.72415039 134.36269531 173.00048828 134.52539062 C170.25764986 135.17612017 167.5725118 135.99619657 164.875 136.8125 C160.94499009 137.90153889 157.9729592 138.35917025 154 137 C152.51380105 134.02760209 152.86822991 131.30380422 152.875 128 C152.87242187 126.741875 152.86984375 125.48375 152.8671875 124.1875 C153 121 153 121 154 119 C153.01 119 152.02 119 151 119 C150.6690332 118.35788574 150.33806641 117.71577148 149.99707031 117.05419922 C143.06435229 103.62056701 136.0196359 90.26178654 128.7421875 77.01171875 C125.88254707 71.80230399 123.08485415 66.5611266 120.32104492 61.30029297 C118.92274741 58.46790059 118.92274741 58.46790059 117 56 C116.27245561 59.97959934 115.83884171 63.82407565 115.70288086 67.8659668 C115.66291489 68.9970134 115.62294891 70.12806 115.58177185 71.29338074 C115.52389244 73.10302055 115.52389244 73.10302055 115.46484375 74.94921875 C115.42186661 76.1987886 115.37888947 77.44835846 115.33460999 78.73579407 C115.22162231 82.0438329 115.11210511 85.35194994 115.00421143 88.66015625 C114.91526774 91.3631328 114.82297344 94.06599002 114.73049068 96.76884747 C114.53943718 102.35318775 114.35102724 107.93761667 114.16772461 113.5222168 C114.13521103 114.51005661 114.10269745 115.49789642 114.06919861 116.51567078 C114.01829405 118.34321722 114 120.17174475 114 122 C114.9590625 122.4640625 114.9590625 122.4640625 115.9375 122.9375 C118 124 118 124 119 125 C120.58201311 125.10546754 122.16583354 125.18438364 123.75 125.25 C127.62135103 125.60547556 128.89577328 125.9264282 132.1875 128.25 C134 131 134 131 134.25 133.625 C132.7527322 136.46980882 131.23376234 137.24695142 128.29589844 138.42480469 C123.43972738 139.64142942 118.45437321 139.09933213 113.5 138.8125 C112.39785156 138.76802734 111.29570312 138.72355469 110.16015625 138.67773438 C104.47195008 138.40117693 99.38493946 137.88008662 94 136 C93.79280958 129.99147774 94.26289292 125.47421415 97 120 C95.515 119.505 95.515 119.505 94 119 C93.23170896 115.48416736 92.78446409 112.07103203 92.53515625 108.48217773 C92.41998657 106.8590995 92.41998657 106.8590995 92.30249023 105.20323181 C92.22329346 104.04175125 92.14409668 102.88027069 92.0625 101.68359375 C91.97750244 100.47615005 91.89250488 99.26870636 91.80493164 98.02467346 C91.53360047 94.1624867 91.26662921 90.30001396 91 86.4375 C90.73253429 82.60004303 90.46415298 78.76265201 90.19506836 74.92530823 C90.0280874 72.54008216 89.8621687 70.1547814 89.69750977 67.76939392 C89.19250914 60.50732724 88.62404313 53.25281005 88 46 C88.66 46 89.32 46 90 46 C89.67 42.7 89.34 39.4 89 36 C86.71376709 36.24230347 86.71376709 36.24230347 84.38134766 36.48950195 C77.5500498 37.10731484 70.75382016 37.16186223 63.8984375 37.16796875 C62.58138824 37.17129715 61.26433899 37.17462555 59.90737915 37.17805481 C57.13909076 37.18399411 54.37083336 37.18589986 51.60253906 37.18530273 C48.07810543 37.18520081 44.55387186 37.19890755 41.0294857 37.21607494 C37.63163366 37.22993677 34.23381738 37.22928486 30.8359375 37.23046875 C29.58259613 37.23765427 28.32925476 37.24483978 27.03793335 37.25224304 C10.90694108 37.21036483 10.90694108 37.21036483 5.08203125 32.78125 C-1.14154542 24.4675791 -1.90551811 13.04976661 -1 3 C-0.67 2.01 -0.34 1.02 0 0 Z " fill="#624921" transform="translate(65,460)"/>
<path d="M0 0 C0.69843631 -0.00155999 1.39687263 -0.00311998 2.11647367 -0.00472724 C4.47419518 -0.00873951 6.83185313 -0.00554674 9.1895752 -0.00241089 C10.87280821 -0.00376483 12.55604092 -0.00554472 14.23927307 -0.00772095 C18.82385287 -0.01229614 23.40841028 -0.01050537 27.99299049 -0.00734186 C32.77983284 -0.0048187 37.56667321 -0.00715567 42.35351562 -0.00872803 C50.39376166 -0.01054985 58.43399852 -0.00814308 66.47424316 -0.00338745 C75.7838138 0.00205519 85.09336254 0.00029255 94.40293264 -0.00521386 C102.38082362 -0.00974462 110.35870798 -0.01039572 118.33659983 -0.00777519 C123.10806544 -0.00621221 127.87952075 -0.00601921 132.65098572 -0.00931168 C137.13573169 -0.01218986 141.62044929 -0.01021568 146.10519218 -0.00441742 C147.75603119 -0.00308954 149.40687257 -0.00348441 151.05771065 -0.00568008 C153.30160876 -0.00839049 155.5454145 -0.00501184 157.78930664 0 C159.67749493 0.00056554 159.67749493 0.00056554 161.60382843 0.0011425 C164.39465332 0.12698364 164.39465332 0.12698364 165.39465332 1.12698364 C165.49358272 3.29179161 165.52436432 5.45992149 165.51965332 7.62698364 C165.52223145 8.81292114 165.52480957 9.99885864 165.52746582 11.22073364 C165.39465332 14.12698364 165.39465332 14.12698364 164.39465332 15.12698364 C161.87634182 15.24139972 159.38432797 15.29181388 156.86486816 15.30056763 C156.0761734 15.30725464 155.28747864 15.31394165 154.47488403 15.3208313 C152.75554344 15.33491759 151.03618376 15.34680013 149.31681442 15.3567791 C146.59274193 15.37315463 143.8688094 15.39639428 141.14480591 15.42167664 C133.39726727 15.49252403 125.64966917 15.55241687 117.90197754 15.60379028 C113.16748374 15.63566706 108.43314657 15.67697344 103.69878006 15.72398567 C101.89597025 15.73996425 100.09312429 15.75230487 98.29026413 15.76089287 C95.76028409 15.77311117 93.23066844 15.79729077 90.70080566 15.82400513 C89.96078308 15.82459427 89.2207605 15.82518341 88.45831299 15.82579041 C80.92705042 15.88052121 80.92705042 15.88052121 74.39465332 19.12698364 C73.93133895 25.00344395 73.93133895 25.00344395 76.39465332 30.12698364 C81.82609574 31.14509887 87.20863685 31.28470359 92.72253418 31.31643677 C93.51213531 31.32473007 94.30173645 31.33302338 95.11526489 31.34156799 C96.8137567 31.35884359 98.51227068 31.37404328 100.21079826 31.38734436 C102.89596882 31.40852128 105.58102628 31.43552411 108.26612854 31.46401978 C114.92528573 31.53353887 121.58452227 31.59343848 128.24377441 31.65304565 C133.89074938 31.70389261 139.53765866 31.758642 145.1845417 31.81886292 C147.83528341 31.84549041 150.48603122 31.86626104 153.13682556 31.88687134 C154.7487315 31.90346255 156.36063459 31.92033333 157.97253418 31.93753052 C158.71378036 31.94171494 159.45502655 31.94589935 160.21873474 31.95021057 C165.28079148 32.0131218 165.28079148 32.0131218 166.39465332 33.12698364 C166.49358272 35.29179161 166.52436432 37.45992149 166.51965332 39.62698364 C166.52223145 40.81292114 166.52480957 41.99885864 166.52746582 43.22073364 C166.39465332 46.12698364 166.39465332 46.12698364 165.39465332 47.12698364 C163.78661454 47.23169313 162.17398776 47.26662341 160.56256104 47.27415466 C158.99368385 47.28488762 158.99368385 47.28488762 157.39311218 47.2958374 C156.23572037 47.29852631 155.07832855 47.30121521 153.88586426 47.3039856 C152.06889793 47.31384239 152.06889793 47.31384239 150.21522522 47.32389832 C146.88239752 47.34027151 143.54963359 47.35186742 140.21678066 47.36010385 C138.1350905 47.36524991 136.05340483 47.37132589 133.97171783 47.37761497 C127.46036544 47.39667624 120.94902444 47.41090395 114.43764949 47.41922694 C106.91844923 47.42899627 99.3995436 47.45530352 91.88044715 47.49572784 C86.07147717 47.52588717 80.26259162 47.54069573 74.45354486 47.54400796 C70.98297336 47.5463592 67.51271628 47.55532811 64.0422287 47.58046913 C60.16839677 47.60807709 56.29495214 47.60391923 52.42102051 47.59695435 C50.69707817 47.61616943 50.69707817 47.61616943 48.93830872 47.63577271 C41.16586064 47.5847222 41.16586064 47.5847222 37.26263428 45.26802063 C35.11755497 42.80937986 33.42849158 40.3121617 31.76965332 37.50198364 C29.23735742 33.22174672 29.23735742 33.22174672 25.39465332 30.12698364 C22.01264367 29.86582151 22.01264367 29.86582151 18.13684082 29.96682739 C17.4331839 29.97202896 16.72952698 29.97723053 16.00454712 29.98258972 C13.7593717 30.00039078 11.51465417 30.0315749 9.26965332 30.06448364 C7.01755676 30.09206523 4.76552268 30.11676085 2.51333618 30.13566589 C0.47484739 30.15355507 -1.5635513 30.18094861 -3.60192871 30.20877075 C-6.60534668 30.12698364 -6.60534668 30.12698364 -7.60534668 29.12698364 C-7.705282 27.06643054 -7.73615574 25.00245774 -7.73815918 22.93948364 C-7.73944824 21.68393677 -7.7407373 20.42838989 -7.74206543 19.13479614 C-7.7399707 18.47769653 -7.73787598 17.82059692 -7.73571777 17.14358521 C-7.73036902 15.1353703 -7.73566359 13.12737905 -7.74206543 11.11917114 C-7.74077637 9.86362427 -7.7394873 8.60807739 -7.73815918 7.31448364 C-7.73646729 5.57231567 -7.73646729 5.57231567 -7.73474121 3.79495239 C-7.4868178 -1.31694768 -4.47104136 0.00133914 0 0 Z " fill="#D6D3F8" transform="translate(263.6053466796875,226.87301635742188)"/>
<path d="M0 0 C2.84780619 2.23206431 3.84997666 3.54992999 5 7 C5.06919903 8.37602281 5.08460521 9.75522816 5.0625 11.1328125 C5.05476562 11.93976563 5.04703125 12.74671875 5.0390625 13.578125 C5.01338022 15.25260972 4.98734875 16.92708912 4.9609375 18.6015625 C4.92181348 22.72262592 5.05850537 26.55029108 5.75 30.6171875 C6.32197161 34.97954526 5.07880932 37.23793659 2.93457031 40.95947266 C1.2670992 44.60020503 1.65795181 48.26418947 1.875 52.1875 C2.31518703 62.0591017 2.31518703 62.0591017 0 66 C-1.76953125 67.546875 -1.76953125 67.546875 -3.8125 68.75 C-4.47894531 69.15734375 -5.14539063 69.5646875 -5.83203125 69.984375 C-10.09043432 71.97930257 -14.16534587 72.11848981 -18.8125 72.0625 C-20.27623047 72.04896484 -20.27623047 72.04896484 -21.76953125 72.03515625 C-22.50558594 72.02355469 -23.24164062 72.01195312 -24 72 C-24 72.66 -24 73.32 -24 74 C-23.22914063 74.06058594 -22.45828125 74.12117187 -21.6640625 74.18359375 C-20.15972656 74.30927734 -20.15972656 74.30927734 -18.625 74.4375 C-17.12839844 74.55931641 -17.12839844 74.55931641 -15.6015625 74.68359375 C-13 75 -13 75 -11 76 C-10.8243308 80.47866367 -10.71868089 84.9564307 -10.625 89.4375 C-10.57472656 90.69755859 -10.52445313 91.95761719 -10.47265625 93.25585938 C-10.34456408 101.4324093 -11.1905673 106.98494594 -17 113 C-22.10611262 117.13519428 -26.35890391 117.181541 -32.8125 117.1875 C-33.49892578 117.19974609 -34.18535156 117.21199219 -34.89257812 117.22460938 C-40.46157054 117.24041541 -45.75844647 116.892064 -50.1796875 113.16015625 C-51.01886719 112.12181641 -51.01886719 112.12181641 -51.875 111.0625 C-52.73738281 110.02802734 -52.73738281 110.02802734 -53.6171875 108.97265625 C-56.19020475 105.30210905 -56.11808326 102.15173487 -56.09765625 97.80078125 C-56.09443359 96.59228516 -56.09121094 95.38378906 -56.08789062 94.13867188 C-56.07951172 92.87603516 -56.07113281 91.61339844 -56.0625 90.3125 C-56.05798828 89.03826172 -56.05347656 87.76402344 -56.04882812 86.45117188 C-56.03702873 83.30073436 -56.02056597 80.15039051 -56 77 C-53.11584117 75.55792059 -50.58278472 75.90605113 -47.375 75.9375 C-46.18648437 75.94652344 -44.99796875 75.95554687 -43.7734375 75.96484375 C-42.85820313 75.97644531 -41.94296875 75.98804688 -41 76 C-41 75.34 -41 74.68 -41 74 C-41.94101562 73.90203125 -42.88203125 73.8040625 -43.8515625 73.703125 C-56.41188738 72.19484582 -56.41188738 72.19484582 -61 68 C-62.89799787 64.20400426 -61.88162848 58.88654931 -61.7421875 54.69921875 C-61.70377907 51.06621203 -61.70377907 51.06621203 -63.4609375 48.66796875 C-65.8501269 44.52630285 -65.61278952 40.32935929 -65.75 35.625 C-65.81380859 34.24441406 -65.81380859 34.24441406 -65.87890625 32.8359375 C-66.37456656 19.98548503 -66.37456656 19.98548503 -63.3125 15.5625 C-61 14 -61 14 -58.25 13.3125 C-54.00766664 14.20991667 -52.05328926 16.25689869 -48.94921875 19.18359375 C-45.69761954 22.21364111 -42.30893501 24.47642599 -38.1875 26.125 C-36 27 -36 27 -35 29 C-34.68546875 28.16855469 -34.3709375 27.33710938 -34.046875 26.48046875 C-33.61890625 25.39378906 -33.1909375 24.30710937 -32.75 23.1875 C-32.33234375 22.10855469 -31.9146875 21.02960938 -31.484375 19.91796875 C-29.27014959 15.56526775 -26.20769162 13.9648433 -21.9375 11.875 C-21.26589844 11.54242188 -20.59429688 11.20984375 -19.90234375 10.8671875 C-18 10 -18 10 -15 9 C-15 8.34 -15 7.68 -15 7 C-14.34 7 -13.68 7 -13 7 C-12.6596875 6.1028125 -12.6596875 6.1028125 -12.3125 5.1875 C-9.47181701 0.45302835 -5.30353543 -0.78988826 0 0 Z M-37 73 C-37 73.99 -37 74.98 -37 76 C-34.36 76 -31.72 76 -29 76 C-28.67 75.01 -28.34 74.02 -28 73 C-30.97 73 -33.94 73 -37 73 Z " fill="#DCFCF8" transform="translate(613,480)"/>
<path d="M0 0 C4.66555613 -0.01111267 9.33101151 -0.0289893 13.996521 -0.05255127 C19.56679129 -0.08001098 25.13689748 -0.0921827 30.70723343 -0.09296608 C32.77892977 -0.09559578 34.85062676 -0.10330092 36.92228317 -0.11643028 C39.78491383 -0.13353326 42.64695157 -0.13168816 45.50961304 -0.12527466 C46.33682704 -0.13449227 47.16404104 -0.14370989 48.01632214 -0.15320683 C54.30603052 -0.10847741 61.31431034 0.6064246 65.9390564 5.23117065 C66.18197632 7.46188354 66.18197632 7.46188354 66.16952515 10.2038269 C66.16759155 11.185448 66.16565796 12.16706909 66.16366577 13.17843628 C66.15141968 14.20646362 66.13917358 15.23449097 66.1265564 16.29367065 C66.1255896 17.84151245 66.1255896 17.84151245 66.12460327 19.42062378 C66.07921637 27.09101068 66.07921637 27.09101068 64.9390564 28.23117065 C57.58547876 29.70188618 49.34490356 30.72496327 42.3765564 27.66867065 C39.31071657 24.60283083 38.28495623 22.34364238 36.9390564 18.23117065 C36.9390564 17.24117065 36.9390564 16.25117065 36.9390564 15.23117065 C32.91764555 15.15123201 28.90061952 15.13089855 24.87850952 15.16403198 C23.512891 15.16710043 22.14713617 15.15432915 20.78182983 15.12496948 C12.67081918 14.71117069 12.67081918 14.71117069 5.77597046 18.20040894 C4.27955858 20.4838946 3.1315671 22.78079515 1.9390564 25.23117065 C0.73223877 26.84791565 0.73223877 26.84791565 -1.0609436 28.23117065 C-3.6600647 28.59866333 -3.6600647 28.59866333 -6.8343811 28.58761597 C-8.03266541 28.59057678 -9.23094971 28.5935376 -10.46554565 28.59658813 C-11.77577698 28.58428162 -13.0860083 28.5719751 -14.4359436 28.55929565 C-15.81848976 28.55656446 -17.20103883 28.55506511 -18.58358765 28.55471802 C-22.30511252 28.54969802 -26.02628482 28.5254304 -29.74769592 28.49707031 C-32.82536631 28.47591654 -35.90303143 28.4658517 -38.98075485 28.45578003 C-66.01256482 28.36472985 -93.03784597 27.91975053 -120.0609436 27.23117065 C-120.17726873 23.81479112 -120.24823258 20.39892168 -120.3109436 16.98117065 C-120.34445923 16.01308472 -120.37797485 15.04499878 -120.4125061 14.0475769 C-120.51173696 6.85333999 -120.51173696 6.85333999 -118.1703186 3.62179565 C-114.98892315 1.52443125 -113.19248645 1.09442863 -109.40982056 1.02584839 C-107.92087784 0.99596077 -107.92087784 0.99596077 -106.40185547 0.96546936 C-104.74230331 0.94037041 -104.74230331 0.94037041 -103.04922485 0.9147644 C-101.86615753 0.89380203 -100.68309021 0.87283966 -99.46417236 0.85124207 C-95.43400451 0.7833515 -91.40378697 0.72484857 -87.3734436 0.66867065 C-85.96468096 0.64828694 -84.55591835 0.62790118 -83.14715576 0.60751343 C-55.43324155 0.2147155 -27.71642045 0.06447449 0 0 Z M-109.0609436 11.23117065 C-109.44313127 12.88731723 -109.77489462 14.5557409 -110.0609436 16.23117065 C-108.99449245 17.52750686 -108.99449245 17.52750686 -106.4984436 17.29367065 C-105.6940686 17.27304565 -104.8896936 17.25242065 -104.0609436 17.23117065 C-103.67875593 15.57502408 -103.34699259 13.90660041 -103.0609436 12.23117065 C-104.12739475 10.93483445 -104.12739475 10.93483445 -106.6234436 11.16867065 C-107.4278186 11.18929565 -108.2321936 11.20992065 -109.0609436 11.23117065 Z M-97.0609436 11.23117065 C-97.0609436 12.88117065 -97.0609436 14.53117065 -97.0609436 16.23117065 C-94.5859436 16.72617065 -94.5859436 16.72617065 -92.0609436 17.23117065 C-91.04983268 14.18203837 -91.04983268 14.18203837 -92.0609436 11.23117065 C-93.7109436 11.23117065 -95.3609436 11.23117065 -97.0609436 11.23117065 Z M-84.0609436 11.23117065 C-84.3909436 12.88117065 -84.7209436 14.53117065 -85.0609436 16.23117065 C-82.5859436 16.72617065 -82.5859436 16.72617065 -80.0609436 17.23117065 C-78.95257938 15.34800907 -78.95257938 15.34800907 -78.0609436 13.23117065 C-78.3909436 12.57117065 -78.7209436 11.91117065 -79.0609436 11.23117065 C-80.7109436 11.23117065 -82.3609436 11.23117065 -84.0609436 11.23117065 Z " fill="#C38EE5" transform="translate(547.0609436035156,171.76882934570313)"/>
<path d="M0 0 C2.60797351 1.26347163 5.21123407 2.53535224 7.8125 3.8125 C8.55048828 4.16892578 9.28847656 4.52535156 10.04882812 4.89257812 C10.76103516 5.24384766 11.47324219 5.59511719 12.20703125 5.95703125 C12.8616333 6.27647705 13.51623535 6.59592285 14.19067383 6.92504883 C16.16547482 8.09831138 17.53401565 9.23097262 19 11 C19.56018078 13.53728941 19.93196018 15.86777524 20.1875 18.4375 C20.3124585 19.55282104 20.3124585 19.55282104 20.43994141 20.69067383 C21.0260461 26.54626018 21.00147296 32.31072305 20.875 38.1875 C20.71450553 47.22290514 21.20325815 56.5868235 26.578125 64.25 C34.24180179 69.78762452 45.59175733 68.25758911 54.62890625 68.1953125 C56.2302991 68.19157605 57.83169425 68.18873207 59.43309021 68.18673706 C63.62027448 68.17915029 67.80731701 68.15954517 71.9944458 68.1373291 C76.27817875 68.11676311 80.5619349 68.10771249 84.84570312 68.09765625 C93.23053334 68.07629394 101.61524897 68.04221886 110 68 C110.495 72.95 110.495 72.95 111 78 C106.71 78.33 102.42 78.66 98 79 C98.34611328 81.25263672 98.34611328 81.25263672 98.69921875 83.55078125 C101.22461276 100.61162916 103.06959326 117.71187129 104.75 134.875 C104.86250092 136.01353424 104.97500183 137.15206848 105.09091187 138.32510376 C105.41407986 141.60954638 105.7316855 144.89447049 106.046875 148.1796875 C106.14355972 149.16723526 106.24024445 150.15478302 106.33985901 151.17225647 C106.80684894 156.13385284 107.21079548 161.01595164 107 166 C106 167 106 167 102.9375 167.0625 C101.968125 167.041875 100.99875 167.02125 100 167 C97.93567243 163.53301561 97.54383846 160.42997886 97.1484375 156.44140625 C97.01953125 155.16845703 96.890625 153.89550781 96.7578125 152.58398438 C96.6949707 151.92358154 96.63212891 151.26317871 96.56738281 150.58276367 C96.3758922 148.57186927 96.17337417 146.56233064 95.96875 144.55273438 C95.45102225 139.33055194 95 134.25288082 95 129 C75.53 129 56.06 129 36 129 C35.67 134.61 35.34 140.22 35 146 C34.72315752 149.11971232 34.43486013 152.20744737 34.0625 155.3125 C33.95131836 156.3634082 33.95131836 156.3634082 33.83789062 157.43554688 C33.42134133 160.99484204 32.8900583 163.92371264 31 167 C29.02 167 27.04 167 25 167 C24.18182646 163.54172536 23.94783574 160.67052746 24.3137207 157.140625 C24.40744461 156.2019458 24.50116852 155.2632666 24.59773254 154.29614258 C24.70598862 153.29091553 24.81424469 152.28568848 24.92578125 151.25 C25.03343307 150.20030029 25.1410849 149.15060059 25.2519989 148.0690918 C25.48145016 145.84631298 25.71451558 143.62390471 25.95092773 141.40185547 C26.30815967 138.04083601 26.65410308 134.67880871 26.99804688 131.31640625 C27.98841909 121.74891006 29.01434672 112.22149233 30.57788086 102.72900391 C31.29871144 98.06882795 31.71136489 93.3832756 32.125 88.6875 C32.21136719 87.74455078 32.29773438 86.80160156 32.38671875 85.83007812 C32.59471424 83.55368303 32.7991328 81.27703314 33 79 C32.40396973 78.94158936 31.80793945 78.88317871 31.19384766 78.82299805 C22.81641123 77.95633736 16.18687208 76.49715959 9.60546875 70.98828125 C5.03008483 65.32192988 3.20848287 58.83953615 1.8125 51.8125 C1.5659668 50.64170898 1.5659668 50.64170898 1.31445312 49.44726562 C0.86466496 47.30030106 0.42884164 45.15123427 0 43 C-0.17942139 42.26056152 -0.35884277 41.52112305 -0.54370117 40.75927734 C-1.15325016 37.07328339 -1.14279314 33.43147183 -1.1328125 29.70703125 C-1.13376923 28.91979172 -1.13472595 28.13255219 -1.13571167 27.32145691 C-1.1363898 25.664906 -1.13456121 24.00835239 -1.13037109 22.35180664 C-1.12499609 19.81064953 -1.13033949 17.26966743 -1.13671875 14.72851562 C-1.13605832 13.11718711 -1.1347779 11.5058587 -1.1328125 9.89453125 C-1.13483673 9.13308304 -1.13686096 8.37163483 -1.13894653 7.58711243 C-1.11497542 2.22995083 -1.11497542 2.22995083 0 0 Z M42 80 C41.360625 84.00125 40.72125 88.0025 40.0625 92.125 C39.86277588 93.35492676 39.66305176 94.58485352 39.45727539 95.85205078 C39.29735107 96.87282715 39.13742676 97.89360352 38.97265625 98.9453125 C38.81031494 99.96125488 38.64797363 100.97719727 38.48071289 102.02392578 C37.75907029 107.99277866 37.42835995 114.00296069 37 120 C55.81 120 74.62 120 94 120 C94.0070378 111.3645585 94.0070378 111.3645585 93.16015625 102.96875 C92.98419922 101.74671875 92.80824219 100.5246875 92.62695312 99.265625 C92.44068359 98.02296875 92.25441406 96.7803125 92.0625 95.5 C91.78889648 93.58960938 91.78889648 93.58960938 91.50976562 91.640625 C90.86385624 85.64440239 90.86385624 85.64440239 89 80 C73.49 80 57.98 80 42 80 Z " fill="#D2FCF6" transform="translate(44,428)"/>
<path d="M0 0 C1.05923172 0.00888245 2.11846344 0.01776489 3.20979309 0.0269165 C4.41081161 0.02721863 5.61183014 0.02752075 6.84924316 0.02783203 C8.14618607 0.04847717 9.44312897 0.06912231 10.77937317 0.09039307 C12.12029172 0.09785493 13.46122118 0.10354812 14.80215454 0.10754395 C18.32878308 0.12280507 21.85475098 0.16208957 25.38111877 0.20635986 C28.9805762 0.2473031 32.58014055 0.26555284 36.17976379 0.28570557 C43.24058069 0.3285844 50.30094939 0.39684062 57.36140442 0.48101807 C58.12156658 4.19574669 58.58374099 6.94001183 57.37336731 10.55865479 C57.01288048 11.66912674 57.01288048 11.66912674 56.64511108 12.80203247 C56.24364113 13.96957565 56.24364113 13.96957565 55.83406067 15.16070557 C55.43240944 16.37985153 55.43240944 16.37985153 55.02264404 17.62362671 C54.16887766 20.2054381 53.2967294 22.7805951 52.42390442 25.35601807 C51.83999606 27.1108189 51.2573001 28.86602366 50.67585754 30.62164307 C49.25170572 34.91290649 47.811042 39.19830026 46.36140442 43.48101807 C47.84640442 43.97601807 47.84640442 43.97601807 49.36140442 44.48101807 C44.38351786 45.48145774 39.65214725 45.6172021 34.60212708 45.59454346 C33.31334152 45.5947625 33.31334152 45.5947625 31.9985199 45.59498596 C29.17414273 45.59429235 26.34983249 45.58652587 23.52546692 45.57867432 C21.56106095 45.57680818 19.59665452 45.5753852 17.63224792 45.5743866 C12.47347214 45.57057686 7.3147247 45.56075978 2.15596008 45.54968262 C-3.11279415 45.53943528 -8.38155299 45.53488186 -13.65031433 45.52984619 C-23.97975384 45.5191361 -34.30917235 45.50207825 -44.63859558 45.48101807 C-43.85404968 41.63574219 -43.85404968 41.63574219 -41.91496277 40.2432251 C-39.22316359 39.34191696 -37.05480599 39.25417128 -34.21672058 39.28570557 C-33.19191589 39.29215088 -32.16711121 39.29859619 -31.11125183 39.30523682 C-30.04777527 39.32199463 -28.98429871 39.33875244 -27.88859558 39.35601807 C-26.27017761 39.36955322 -26.27017761 39.36955322 -24.61906433 39.38336182 C-21.95868281 39.40690502 -19.29875222 39.43979008 -16.63859558 39.48101807 C-16.50840027 38.26414307 -16.37820496 37.04726807 -16.24406433 35.79351807 C-15.82828928 32.49053723 -15.16522117 29.59573687 -13.95109558 26.48101807 C-13.42129089 25.10236572 -13.42129089 25.10236572 -12.88078308 23.69586182 C-12.47086121 22.63496338 -12.06093933 21.57406494 -11.63859558 20.48101807 C-11.13850689 19.10829818 -10.64127999 17.73453349 -10.14640808 16.35992432 C-9.62308835 14.92107939 -9.09965127 13.48227715 -8.57609558 12.04351807 C-8.20835022 11.01387939 -8.20835022 11.01387939 -7.83317566 9.96343994 C-4.4581128 0.8127175 -4.4581128 0.8127175 0 0 Z " fill="#7889DF" transform="translate(127.63859558105469,421.51898193359375)"/>
<path d="M0 0 C0.33 0.99 0.66 1.98 1 3 C1.55429687 2.83757813 2.10859375 2.67515625 2.6796875 2.5078125 C5.22519339 1.95071525 7.52117688 1.86722739 10.125 1.875 C11.42824219 1.87113281 11.42824219 1.87113281 12.7578125 1.8671875 C15 2 15 2 17 3 C17.1756692 7.47866367 17.28131911 11.9564307 17.375 16.4375 C17.42527344 17.69755859 17.47554687 18.95761719 17.52734375 20.25585938 C17.65543592 28.4324093 16.8094327 33.98494594 11 40 C5.89388738 44.13519428 1.64109609 44.181541 -4.8125 44.1875 C-5.84213867 44.20586914 -5.84213867 44.20586914 -6.89257812 44.22460938 C-12.46157054 44.24041541 -17.75844647 43.892064 -22.1796875 40.16015625 C-22.73914063 39.46792969 -23.29859375 38.77570312 -23.875 38.0625 C-24.44992187 37.37285156 -25.02484375 36.68320312 -25.6171875 35.97265625 C-28.19020475 32.30210905 -28.11808326 29.15173487 -28.09765625 24.80078125 C-28.09443359 23.59228516 -28.09121094 22.38378906 -28.08789062 21.13867188 C-28.07951172 19.87603516 -28.07113281 18.61339844 -28.0625 17.3125 C-28.05573242 15.40114258 -28.05573242 15.40114258 -28.04882812 13.45117188 C-28.03702873 10.30073436 -28.02056597 7.15039051 -28 4 C-25.05472208 2.52736104 -22.20927281 2.60798484 -18.9375 2.375 C-17.03291016 2.23191406 -17.03291016 2.23191406 -15.08984375 2.0859375 C-13.56037109 2.04339844 -13.56037109 2.04339844 -12 2 C-11.67 2.33 -11.34 2.66 -11 3 C-9.33050645 2.96232046 -7.66240712 2.84571204 -6 2.6875 C-5.0925 2.60886719 -4.185 2.53023437 -3.25 2.44921875 C-2.5075 2.30097656 -1.765 2.15273438 -1 2 C-0.67 1.34 -0.34 0.68 0 0 Z " fill="#DCFCF8" transform="translate(585,553)"/>
<path d="M0 0 C2.9375 0.25 2.9375 0.25 6 1 C8.13167665 4.19751498 8.24964036 4.98740262 8.24723816 8.6539917 C8.25143265 9.61145294 8.25562714 10.56891418 8.25994873 11.5553894 C8.25151947 13.13043747 8.25151947 13.13043747 8.24291992 14.73730469 C8.24481827 15.84552582 8.24671661 16.95374695 8.24867249 18.09555054 C8.25239665 21.78772921 8.24162922 25.4797135 8.23046875 29.171875 C8.22927477 31.76458717 8.22882425 34.35729978 8.2290802 36.95001221 C8.22751107 42.41787578 8.21945331 47.88567012 8.20581055 53.35351562 C8.19205037 58.8867299 8.18478013 64.41989336 8.18530273 69.953125 C8.18799113 100.98076223 8.06261732 131.98785763 7 163 C4.6739143 163.38063221 2.33944736 163.71269945 0 164 C-1.83855401 162.16144599 -1.12620489 159.19930244 -1.12698364 156.73632812 C-1.12854363 156.07464378 -1.13010362 155.41295944 -1.13171089 154.73122406 C-1.13572271 152.4978772 -1.13253056 150.26459745 -1.12939453 148.03125 C-1.13074849 146.43668579 -1.13252839 144.84212189 -1.13470459 143.24755859 C-1.13927955 138.90470621 -1.13748911 134.56187748 -1.1343255 130.21902466 C-1.13180222 125.68442723 -1.13413935 121.14983188 -1.13571167 116.61523438 C-1.13753346 108.9986942 -1.13512681 101.38216371 -1.13037109 93.765625 C-1.12492846 84.94683812 -1.12669111 76.12807435 -1.1321975 67.30928802 C-1.13672836 59.75177563 -1.13737931 52.19427021 -1.13475883 44.6367569 C-1.13319591 40.11680217 -1.1330027 35.59685833 -1.13629532 31.0769043 C-1.13917365 26.82854118 -1.13719905 22.58020801 -1.13140106 18.33184814 C-1.13007326 16.76808726 -1.13046792 15.20432387 -1.13266373 13.64056396 C-1.13537445 11.51489868 -1.13199511 9.38933086 -1.12698364 7.26367188 C-1.12660662 6.07124878 -1.12622959 4.87882568 -1.12584114 3.65026855 C-1 1 -1 1 0 0 Z " fill="#CFFCF7" transform="translate(291,291)"/>
<path d="M0 0 C4.65070183 1.39301231 4.65070183 1.39301231 6.19433594 4.07543945 C6.45504883 4.91292725 6.71576172 5.75041504 6.984375 6.61328125 C7.42716797 7.9909668 7.42716797 7.9909668 7.87890625 9.39648438 C8.16636719 10.35876953 8.45382813 11.32105469 8.75 12.3125 C9.05292969 13.26318359 9.35585937 14.21386719 9.66796875 15.19335938 C11.00383103 19.44140141 12.18034215 23.61952546 13 28 C13.66 28 14.32 28 15 28 C15.33 28.825 15.66 29.65 16 30.5 C17.6808516 33.17261641 17.6808516 33.17261641 19.96533203 33.32324219 C26.80942834 33.2485944 33.2012838 32.22824543 39.875 30.75 C40.89335937 30.54503906 41.91171875 30.34007812 42.9609375 30.12890625 C43.940625 29.91621094 44.9203125 29.70351563 45.9296875 29.484375 C47.24815674 29.20158691 47.24815674 29.20158691 48.59326172 28.91308594 C51.47573025 27.81951399 52.87150807 26.18407639 55 24 C57.6875 24.125 57.6875 24.125 60 25 C60.495 25.99 60.495 25.99 61 27 C62.11375 26.95875 63.2275 26.9175 64.375 26.875 C68 27 68 27 70 29 C69.66357309 36.0649652 69.66357309 36.0649652 67.625 38.9375 C66 40 66 40 63 41 C63.66 41.66 64.32 42.32 65 43 C64.25497726 43.00586624 63.50995453 43.01173248 62.74235535 43.01777649 C55.72347211 43.07566439 48.70491103 43.14771813 41.68635082 43.23571491 C38.07795123 43.28045551 34.46966549 43.31970305 30.86108398 43.34643555 C27.37900415 43.37243241 23.89736161 43.41280795 20.41555214 43.46318626 C18.43974801 43.48800764 16.4637748 43.49790939 14.48783875 43.50764465 C12.68631096 43.53733589 12.68631096 43.53733589 10.84838867 43.56762695 C9.25954109 43.58428154 9.25954109 43.58428154 7.63859558 43.60127258 C4.68978692 44.04687739 3.7902115 44.67563132 2 47 C-0.17796277 41.70204904 -0.26234785 37.06823785 -0.1953125 31.4453125 C-0.1924826 30.54376434 -0.18965271 29.64221619 -0.18673706 28.71334839 C-0.17559439 25.85042724 -0.1505008 22.98782566 -0.125 20.125 C-0.11496255 18.17708787 -0.10583804 16.22917081 -0.09765625 14.28125 C-0.07567443 9.5207113 -0.0411855 4.76040973 0 0 Z " fill="#E4BB78" transform="translate(120,379)"/>
<path d="M0 0 C2.1015625 0.05859375 2.1015625 0.05859375 4.625 0.4375 C8.09871742 0.88928406 10.93706826 0.97165233 14.375 0.3125 C18 0 18 0 20.4375 1.8125 C22 4 22 4 23 6 C23.969375 6.20625 24.93875 6.4125 25.9375 6.625 C29 8 29 8 30.5625 11.375 C31.84556272 18.31116087 29.30098654 25.91923531 26 32 C25.01 32 24.02 32 23 32 C23 31.34 23 30.68 23 30 C21.35 30 19.7 30 18 30 C19 28 19 28 22 27 C21.02160156 26.99613281 21.02160156 26.99613281 20.0234375 26.9921875 C12.85668425 26.67507452 12.85668425 26.67507452 10.17578125 24.5625 C9.68464844 24.005625 9.19351563 23.44875 8.6875 22.875 C7.800625 21.92625 6.91375 20.9775 6 20 C4.35 20.33 2.7 20.66 1 21 C0.67 24.63 0.34 28.26 0 32 C-0.969375 32.12375 -1.93875 32.2475 -2.9375 32.375 C-3.948125 32.58125 -4.95875 32.7875 -6 33 C-6.33 33.66 -6.66 34.32 -7 35 C-9.4375 34.625 -9.4375 34.625 -12 34 C-13.88519529 30.22960943 -13.18475994 25.64845405 -13.1875 21.5 C-13.19974609 20.52417969 -13.21199219 19.54835938 -13.22460938 18.54296875 C-13.22654297 17.61097656 -13.22847656 16.67898438 -13.23046875 15.71875 C-13.23457764 14.86216797 -13.23868652 14.00558594 -13.24291992 13.12304688 C-13 11 -13 11 -11 9 C-7.375 8.875 -7.375 8.875 -4 9 C-3.71125 7.88625 -3.4225 6.7725 -3.125 5.625 C-2 2 -2 2 0 0 Z " fill="#5F4822" transform="translate(89,308)"/>
<path d="M0 0 C1 3 1 3 -0.0625 5.25 C-2.47641996 8.67620898 -4.97934551 12.08031446 -8 15 C-8.66 15 -9.32 15 -10 15 C-10.23203125 15.56074219 -10.4640625 16.12148437 -10.703125 16.69921875 C-12.33077095 19.58681955 -14.36259832 21.5155302 -16.75 23.8125 C-20.7422092 27.71792204 -24.44473562 31.69625891 -28 36 C-29.65 35.67 -31.3 35.34 -33 35 C-33.33 33.35 -33.66 31.7 -34 30 C-34.54269531 30.2165625 -35.08539063 30.433125 -35.64453125 30.65625 C-36.35996094 30.9346875 -37.07539063 31.213125 -37.8125 31.5 C-38.87404297 31.91765625 -38.87404297 31.91765625 -39.95703125 32.34375 C-42 33 -42 33 -45 33 C-44.7834375 31.081875 -44.7834375 31.081875 -44.5625 29.125 C-44.47871094 28.30902344 -44.39492188 27.49304688 -44.30859375 26.65234375 C-44.10089108 24.86715248 -43.84189967 23.08726953 -43.53515625 21.31640625 C-43.14271442 18.801041 -42.83115247 16.54183981 -43 14 C-45.24122355 11.30211406 -45.24122355 11.30211406 -48 10 C-47.67 9.01 -47.34 8.02 -47 7 C-44.54638672 6.12768555 -44.54638672 6.12768555 -41.3046875 5.44921875 C-40.12487305 5.20220215 -38.94505859 4.95518555 -37.72949219 4.70068359 C-31.87873031 3.60146347 -26.01665254 2.66314871 -20.125 1.8125 C-18.36929687 1.54663086 -18.36929687 1.54663086 -16.578125 1.27539062 C-11.00123971 0.45656223 -5.63811813 -0.2383461 0 0 Z " fill="#DCFCF9" transform="translate(510,82)"/>
<path d="M0 0 C2.3125 0.0625 2.3125 0.0625 5 1 C5.721875 1.825 6.44375 2.65 7.1875 3.5 C10.7839354 6.69683146 13.21418263 6.63028028 17.890625 6.76171875 C18.93476562 6.87966797 18.93476562 6.87966797 20 7 C20.495 7.99 20.495 7.99 21 9 C19.68 9.33 18.36 9.66 17 10 C18.32 10.33 19.64 10.66 21 11 C21 11.66 21 12.32 21 13 C21.99 13 22.98 13 24 13 C22.55454545 26.73181818 22.55454545 26.73181818 18.625 29.9375 C16 31 16 31 12 31 C12 37.27 12 43.54 12 50 C4.43455958 48.9192228 3.76577285 48.56353008 -0.48828125 43.171875 C-3.85103138 38.34063709 -5.14121965 34.75363206 -4.75 28.9375 C-4.6177692 25.83479871 -4.56402291 24.53616375 -6.546875 22.09765625 C-8.46013974 20.48555253 -8.46013974 20.48555253 -10.46875 19.15625 C-10.9740625 18.7746875 -11.479375 18.393125 -12 18 C-12 17.34 -12 16.68 -12 16 C-11.01 16 -10.02 16 -9 16 C-8.67 15.01 -8.34 14.02 -8 13 C-6.02 13 -4.04 13 -2 13 C-2.02320312 12.22914063 -2.04640625 11.45828125 -2.0703125 10.6640625 C-2.08835937 9.66117187 -2.10640625 8.65828125 -2.125 7.625 C-2.14820312 6.62726563 -2.17140625 5.62953125 -2.1953125 4.6015625 C-2 2 -2 2 0 0 Z " fill="#F1DFBF" transform="translate(91,327)"/>
<path d="M0 0 C2.61837591 1.9845627 4.32927181 4.18828671 6 7 C6.36867187 7.61746094 6.73734375 8.23492187 7.1171875 8.87109375 C8.99749289 13.40545853 8.8119202 18.22615343 8 23 C5.39889258 27.54659324 1.92893424 31.08783342 -3 33 C-8.04225193 33.55751729 -13.65153707 33.82062461 -18 31 C-26.12754896 22.75010084 -26.12754896 22.75010084 -26.25 16.75 C-26.16757202 11.03499354 -24.35564554 7.6569001 -20.75 3.25 C-14.764145 -1.64751773 -7.29284828 -2.086809 0 0 Z " fill="#C390E4" transform="translate(187,207)"/>
<path d="M0 0 C0.85758911 -0.00315216 1.71517822 -0.00630432 2.59875488 -0.009552 C3.53102905 -0.00752777 4.46330322 -0.00550354 5.42382812 -0.00341797 C6.84979309 -0.00485306 6.84979309 -0.00485306 8.30456543 -0.00631714 C10.31876695 -0.00699904 12.33297065 -0.00514409 14.34716797 -0.00097656 C17.44178167 0.00437155 20.53625022 -0.00092124 23.63085938 -0.00732422 C25.58268261 -0.00666344 27.53450576 -0.00538228 29.48632812 -0.00341797 C30.88473938 -0.00645432 30.88473938 -0.00645432 32.31140137 -0.009552 C33.16899048 -0.00639984 34.02657959 -0.00324768 34.91015625 0 C35.66880981 0.00079559 36.42746338 0.00159119 37.20910645 0.00241089 C38.95507812 0.12939453 38.95507812 0.12939453 39.95507812 1.12939453 C40.76399506 7.60072998 39.36710973 10.85717773 35.65820312 16.14892578 C32.8500224 19.41440199 30.26563412 21.50500335 25.95507812 22.12939453 C23.3379871 22.25001073 20.75920593 22.31447844 18.14257812 22.31689453 C17.11293945 22.33526367 17.11293945 22.33526367 16.0625 22.35400391 C10.49350759 22.36980994 5.19663165 22.02145853 0.77539062 18.28955078 C0.2159375 17.59732422 -0.34351563 16.90509766 -0.91992188 16.19189453 C-1.78230469 15.15742187 -1.78230469 15.15742187 -2.66210938 14.10205078 C-5.60641001 9.90184789 -5.20364205 6.04971992 -5.04492188 1.12939453 C-3.51407763 -0.40144971 -2.13289044 0.00223674 0 0 Z " fill="#DDFCF9" transform="translate(562.044921875,574.87060546875)"/>
<path d="M0 0 C0.76166977 0.00222061 1.52333954 0.00444122 2.30809021 0.00672913 C3.16890701 0.00680466 4.02972382 0.00688019 4.91662598 0.00695801 C5.8520372 0.01211929 6.78744843 0.01728058 7.75120544 0.02259827 C8.70422043 0.02401321 9.65723541 0.02542816 10.63912964 0.02688599 C13.69605085 0.032503 16.75289996 0.04505836 19.80979919 0.05775452 C21.87685543 0.06276733 23.94391281 0.06733061 26.01097107 0.07142639 C31.08977507 0.08247795 36.16852489 0.09975397 41.24729919 0.12025452 C41.27414232 2.93281733 41.29406107 5.74512693 41.30979919 8.55775452 C41.3181781 9.36019592 41.32655701 10.16263733 41.33518982 10.98939514 C41.3438135 13.03320673 41.29958069 15.07709353 41.24729919 17.12025452 C39.29865995 19.06889376 36.34921199 18.24944191 33.75608826 18.25920105 C32.84568787 18.25717682 31.93528748 18.25515259 30.99729919 18.25306702 C30.06885193 18.25402374 29.14040466 18.25498047 28.18382263 18.25596619 C26.21669955 18.25664807 24.24957423 18.25479323 22.28245544 18.25062561 C19.26026893 18.24527747 16.23823105 18.25057034 13.21604919 18.25697327 C11.30979886 18.25631249 9.40354863 18.25503133 7.49729919 18.25306702 C6.13169861 18.25610336 6.13169861 18.25610336 4.73851013 18.25920105 C-1.63775112 18.2352042 -1.63775112 18.2352042 -2.75270081 17.12025452 C-2.85251294 14.44294072 -2.89149956 11.79721277 -2.87770081 9.12025452 C-2.88156799 8.37002014 -2.88543518 7.61978577 -2.88941956 6.84681702 C-2.87741704 0.1974224 -2.87741704 0.1974224 0 0 Z " fill="#CFFCF7" transform="translate(238.75270080566406,346.87974548339844)"/>
<path d="M0 0 C0.86625 0.66 1.7325 1.32 2.625 2 C7.37822233 4.81672434 11.44093651 4.16480138 16.85546875 3.84765625 C20 4 20 4 21.9296875 5.34375 C23 7 23 7 22.9375 9.4375 C21.77450205 12.61636107 20.62971739 13.85537611 18 16 C15.43442514 16.84947127 13.06207048 17.50695872 10.4375 18.0625 C9.00098794 18.38924695 7.56479013 18.71737846 6.12890625 19.046875 C5.42652832 19.20478516 4.72415039 19.36269531 4.00048828 19.52539062 C1.25764986 20.17612017 -1.4274882 20.99619657 -4.125 21.8125 C-8.05500991 22.90153889 -11.0270408 23.35917025 -15 22 C-16.48619895 19.02760209 -16.13177009 16.30380422 -16.125 13 C-16.12757813 11.741875 -16.13015625 10.48375 -16.1328125 9.1875 C-16 6 -16 6 -15 4 C-15.99 3.67 -16.98 3.34 -18 3 C-11.8633856 0.88739504 -6.50914986 -0.75940082 0 0 Z " fill="#7A99B7" transform="translate(234,575)"/>
<path d="M0 0 C0 0.99 0 1.98 0 3 C0.639375 3.309375 1.27875 3.61875 1.9375 3.9375 C4 5 4 5 5 6 C6.58201311 6.10546754 8.16583354 6.18438364 9.75 6.25 C13.62135103 6.60547556 14.89577328 6.9264282 18.1875 9.25 C20 12 20 12 20.25 14.625 C18.7527322 17.46980882 17.23376234 18.24695142 14.29589844 19.42480469 C9.43972738 20.64142942 4.45437321 20.09933213 -0.5 19.8125 C-1.60214844 19.76802734 -2.70429688 19.72355469 -3.83984375 19.67773438 C-9.52804992 19.40117693 -14.61506054 18.88008662 -20 17 C-20.37804878 6.03658537 -20.37804878 6.03658537 -16.73046875 1.37890625 C-12.50578989 -1.98748571 -4.95075955 -1.48522786 0 0 Z " fill="#7267CE" transform="translate(179,579)"/>
<path d="M0 0 C3.92096306 4.24770999 6.00453548 8.36858478 6.6875 14.125 C6.22369842 17.63664051 5.31722931 19.5950597 3.25 22.4375 C-0.71293489 21.87136644 -3.68452696 21.0772129 -6.75 18.4375 C-7.48911237 15.70763972 -7.60961979 13.29189763 -7.75 10.4375 C-9.4 10.7675 -11.05 11.0975 -12.75 11.4375 C-12.811875 12.530625 -12.87375 13.62375 -12.9375 14.75 C-13.75 18.4375 -13.75 18.4375 -15.9375 20.5 C-19.56040654 21.70763551 -21.32209268 20.95215672 -24.75 19.4375 C-25.37054002 9.75018081 -25.37054002 9.75018081 -23.125 5 C-16.57832713 -2.06351547 -8.79603321 -4.99774614 0 0 Z " fill="#E4BD7D" transform="translate(265.75,302.5625)"/>
<path d="M0 0 C5.77490234 0.86279297 5.77490234 0.86279297 7.80078125 2.09765625 C9.63994602 5.01515867 9.85345363 8.07830835 10.1875 11.4375 C10.27080566 12.18104736 10.35411133 12.92459473 10.43994141 13.69067383 C11.0260461 19.54626018 11.00147296 25.31072305 10.875 31.1875 C10.7197121 39.929789 10.76773989 50.55149302 17.140625 57.25 C18.06101562 58.11625 18.06101562 58.11625 19 59 C19 59.66 19 60.32 19 61 C13.33608373 59.55109119 10.06963607 57.25228526 6.90625 52.28125 C1.7676498 42.78262539 -0.14698476 31.89569327 -0.09765625 21.19140625 C-0.09443359 19.95068359 -0.09121094 18.70996094 -0.08789062 17.43164062 C-0.07951172 16.15482422 -0.07113281 14.87800781 -0.0625 13.5625 C-0.05798828 12.25861328 -0.05347656 10.95472656 -0.04882812 9.61132812 C-0.03709251 6.40750448 -0.02067363 3.20377637 0 0 Z " fill="#E4FAF6" transform="translate(54,435)"/>
<path d="M0 0 C3.51814239 2.54388757 5.61606207 5.23662794 6.546875 9.51171875 C6.79448648 14.11316539 6.51559638 16.31718317 3.6875 20.0625 C-0.10204446 22.79449717 -3.26656644 23.39378918 -7.9296875 23.359375 C-11.6233571 22.71820971 -13.42218955 20.64068388 -16 18 C-17.73383086 14.53233829 -17.4665538 10.79157105 -17 7 C-13.24308735 0.35315455 -7.31886644 -2.35249278 0 0 Z " fill="#C195E5" transform="translate(228,234)"/>
<path d="M0 0 C0.66 0 1.32 0 2 0 C1.01 3.3 0.02 6.6 -1 10 C0.98 8.68 2.96 7.36 5 6 C4.62825924 8.62471509 4.30484966 9.73889558 2.2578125 11.4921875 C1.55398438 11.94851563 0.85015625 12.40484375 0.125 12.875 C-3.55746542 15.46196495 -5.36677061 17.71277286 -7 22 C-6.44570313 21.62746094 -5.89140625 21.25492187 -5.3203125 20.87109375 C-4.59585938 20.39800781 -3.87140625 19.92492187 -3.125 19.4375 C-2.40570312 18.96183594 -1.68640625 18.48617188 -0.9453125 17.99609375 C-0.30335938 17.66738281 0.33859375 17.33867187 1 17 C1.66 17.33 2.32 17.66 3 18 C-0.75 22.875 -0.75 22.875 -3 24 C-4.99960012 24.039992 -7.00047242 24.04346799 -9 24 C-9.66 26.64 -10.32 29.28 -11 32 C-10.48050781 31.73445312 -9.96101562 31.46890625 -9.42578125 31.1953125 C-5.66979306 29.29301903 -1.94774121 27.48040295 2 26 C0.53973006 28.92053987 -0.43649622 30.68017353 -3.3125 32.3125 C-6.30426861 33.07783616 -8.92396625 33.14307134 -12 33 C-12.19916016 33.93972656 -12.19916016 33.93972656 -12.40234375 34.8984375 C-12.57894531 35.71570313 -12.75554688 36.53296875 -12.9375 37.375 C-13.11152344 38.18710937 -13.28554688 38.99921875 -13.46484375 39.8359375 C-14 42 -14 42 -15 44 C-10.71 42.68 -6.42 41.36 -2 40 C-4 44 -4 44 -6.1875 45.25 C-9.54230653 46.14461507 -12.54297098 46.13556977 -16 46 C-16.06058594 46.60328125 -16.12117187 47.2065625 -16.18359375 47.828125 C-16.26738281 48.62734375 -16.35117187 49.4265625 -16.4375 50.25 C-16.55931641 51.43335938 -16.55931641 51.43335938 -16.68359375 52.640625 C-16.97634993 54.82364639 -17.42064419 56.8773182 -18 59 C-16.08210046 58.37879354 -14.16572478 57.75288109 -12.25 57.125 C-11.18265625 56.77695312 -10.1153125 56.42890625 -9.015625 56.0703125 C-6.54450739 55.1932578 -4.3026308 54.24073795 -2 53 C-3.0269345 56.30901116 -4.03922107 57.0219638 -7.125 58.75 C-11.15602111 60.31997664 -14.71427756 60.22556434 -19 60 C-19.33 62.97 -19.66 65.94 -20 69 C-20.33 69 -20.66 69 -21 69 C-21.05607422 67.46279297 -21.05607422 67.46279297 -21.11328125 65.89453125 C-21.17897079 64.53381938 -21.24541709 63.17314389 -21.3125 61.8125 C-21.33505859 61.13896484 -21.35761719 60.46542969 -21.38085938 59.77148438 C-21.6751053 54.28781039 -23.2309181 51.17733157 -26.625 47 C-28.22214101 44.67688581 -28.61539499 42.76915607 -29 40 C-26.69324556 42.14766793 -25.00343225 43.99395924 -23.4375 46.75 C-22.963125 47.4925 -22.48875 48.235 -22 49 C-21.01 49 -20.02 49 -19 49 C-18.97314062 46.85423363 -18.95366912 44.70837355 -18.9375 42.5625 C-18.92589844 41.36753906 -18.91429687 40.17257812 -18.90234375 38.94140625 C-18.66098208 36.11126659 -18.66098208 36.11126659 -20 35 C-20.04092937 32.66702567 -20.04241723 30.33294775 -20 28 C-17.4345406 30.5654594 -17.45953913 32.47686668 -17 36 C-16.34 36 -15.68 36 -15 36 C-14.80533668 34.20909747 -14.61948787 32.41723495 -14.4375 30.625 C-14.33308594 29.62726562 -14.22867188 28.62953125 -14.12109375 27.6015625 C-13.78855292 25.015963 -13.78855292 25.015963 -15 23 C-15.13415472 20.3276379 -15.04318541 17.67749512 -15 15 C-14.34 15 -13.68 15 -13 15 C-12.67 18.3 -12.34 21.6 -12 25 C-11.34 25 -10.68 25 -10 25 C-10 19.39 -10 13.78 -10 8 C-9.34 8 -8.68 8 -8 8 C-8 10.31 -8 12.62 -8 15 C-7.34 15 -6.68 15 -6 15 C-5.9071875 13.7934375 -5.9071875 13.7934375 -5.8125 12.5625 C-4.73463007 7.8364549 -2.48408581 4.12486573 0 0 Z " fill="#C6F7F1" transform="translate(607,487)"/>
<path d="M0 0 C3.62342508 1.6470114 6.16816086 3.4327343 8 7 C8.56041277 11.96365593 8.5325029 14.02374469 6.125 18.4375 C3.80665426 21.23315221 3.10638626 21.87528657 -0.42578125 22.2734375 C-8.14822831 22.54513388 -8.14822831 22.54513388 -12.125 20 C-14.44078743 16.29474011 -15.4464156 13.37830686 -15 9 C-11.42433328 1.98109867 -7.95388305 -0.83725085 0 0 Z " fill="#E0F7F9" transform="translate(181,212)"/>
<path d="M0 0 C0.88076706 0.00141495 1.76153412 0.0028299 2.66899109 0.00428772 C5.47076878 0.00986688 8.27246537 0.02241554 11.07421875 0.03515625 C12.97851447 0.04017394 14.88281144 0.04473638 16.78710938 0.04882812 C21.44534356 0.05982948 26.10351742 0.07707976 30.76171875 0.09765625 C30.76171875 3.39765625 30.76171875 6.69765625 30.76171875 10.09765625 C15.91171875 10.09765625 1.06171875 10.09765625 -14.23828125 10.09765625 C-14.23828125 7.12765625 -14.23828125 4.15765625 -14.23828125 1.09765625 C-9.48790458 -0.12266273 -4.86661861 -0.02958036 0 0 Z " fill="#C08EE4" transform="translate(571.23828125,565.90234375)"/>
<path d="M0 0 C3.1875 0.3125 3.1875 0.3125 6 1 C6 1.99 6 2.98 6 4 C6.7734375 3.86722656 7.546875 3.73445312 8.34375 3.59765625 C14.21975787 2.60135293 20.07932027 1.68315535 26 1 C24.35939376 4.79390194 23.30239417 5.86954895 19.44140625 7.53515625 C15.01211157 9.08605914 10.52353209 10.15255893 5.9375 11.125 C5.17373047 11.29386719 4.40996094 11.46273437 3.62304688 11.63671875 C-9.18636008 14.41994319 -9.18636008 14.41994319 -11.9375 13 C-13.52633023 10.00926074 -13.18792343 7.31998061 -13 4 C-12.67 4 -12.34 4 -12 4 C-12 5.65 -12 7.3 -12 9 C-11.34 9 -10.68 9 -10 9 C-10.33 7.02 -10.66 5.04 -11 3 C-9.1128125 3.0928125 -9.1128125 3.0928125 -7.1875 3.1875 C-3.90891218 3.32116016 -3.90891218 3.32116016 -1.375 1.4375 C-0.92125 0.963125 -0.4675 0.48875 0 0 Z " fill="#2C0F62" transform="translate(231,584)"/>
<path d="M0 0 C0.74958984 0.00451172 1.49917969 0.00902344 2.27148438 0.01367188 C4.11852383 0.02543646 5.96552213 0.04337135 7.8125 0.0625 C8.09222656 0.87074219 8.37195313 1.67898438 8.66015625 2.51171875 C9.04042969 3.35347656 9.42070312 4.19523438 9.8125 5.0625 C15.11869725 6.83123242 21.25900413 6.15143499 26.8125 6.0625 C27.3075 7.0525 27.3075 7.0525 27.8125 8.0625 C21.31288465 11.67651026 15.6064133 11.29727919 8.3125 10.875 C7.21035156 10.83052734 6.10820312 10.78605469 4.97265625 10.74023438 C-0.71554992 10.46367693 -5.80256054 9.94258662 -11.1875 8.0625 C-11.1875 5.7525 -11.1875 3.4425 -11.1875 1.0625 C-7.42449626 -0.19183458 -3.91539091 -0.04445422 0 0 Z " fill="#2A0B5D" transform="translate(170.1875,587.9375)"/>
<path d="M0 0 C0.95018509 0.00565979 1.90037018 0.01131958 2.87934875 0.01715088 C5.91617069 0.03955352 8.95181556 0.0897573 11.98828125 0.140625 C14.04620693 0.16068496 16.10415108 0.17893661 18.16210938 0.1953125 C23.20878732 0.23943113 28.25458468 0.3084857 33.30078125 0.390625 C33.30078125 0.720625 33.30078125 1.050625 33.30078125 1.390625 C32.13506592 1.3999707 30.96935059 1.40931641 29.76831055 1.41894531 C25.44614345 1.45879682 21.12469183 1.52454148 16.80297852 1.59814453 C14.93197821 1.62638237 13.06085799 1.6475829 11.18969727 1.66162109 C8.50083904 1.68301217 5.81342687 1.72964045 3.125 1.78125 C1.8686097 1.78309296 1.8686097 1.78309296 0.58683777 1.78497314 C-3.83824106 1.84731413 -3.83824106 1.84731413 -7.58422852 3.94824219 C-9.09361251 7.25454337 -10.28115062 10.61460005 -11.36328125 14.078125 C-11.60082123 14.81764404 -11.83836121 15.55716309 -12.08309937 16.3190918 C-12.83741733 18.67401752 -13.58078454 21.03224369 -14.32421875 23.390625 C-14.83134826 24.97678103 -15.33915372 26.56272111 -15.84765625 28.1484375 C-18.49822213 36.2057465 -18.49822213 36.2057465 -20.69921875 44.390625 C-22.34921875 44.390625 -23.99921875 44.390625 -25.69921875 44.390625 C-25.69921875 43.400625 -25.69921875 42.410625 -25.69921875 41.390625 C-32.62921875 41.060625 -39.55921875 40.730625 -46.69921875 40.390625 C-46.69921875 40.060625 -46.69921875 39.730625 -46.69921875 39.390625 C-39.10921875 39.390625 -31.51921875 39.390625 -23.69921875 39.390625 C-23.36921875 36.750625 -23.03921875 34.110625 -22.69921875 31.390625 C-21.9375 28.765625 -21.9375 28.765625 -21.01171875 26.390625 C-20.48191406 25.01197266 -20.48191406 25.01197266 -19.94140625 23.60546875 C-19.53148438 22.54457031 -19.1215625 21.48367188 -18.69921875 20.390625 C-18.19913006 19.01790511 -17.70190316 17.64414042 -17.20703125 16.26953125 C-16.68371152 14.83068633 -16.16027444 13.39188408 -15.63671875 11.953125 C-15.26897339 10.92348633 -15.26897339 10.92348633 -14.89379883 9.87304688 C-11.54373399 0.79010092 -9.36526387 -0.20900397 0 0 Z " fill="#8BA6CD" transform="translate(134.69921875,421.609375)"/>
<path d="M0 0 C11.55 0 23.1 0 35 0 C35 2.31 35 4.62 35 7 C30.19451403 7.04936883 25.38917506 7.08570443 20.58349609 7.10986328 C18.94805328 7.11993254 17.31262851 7.13358881 15.67724609 7.15087891 C13.3290563 7.17508705 10.98110412 7.18647357 8.6328125 7.1953125 C7.53273361 7.21079636 7.53273361 7.21079636 6.41043091 7.22659302 C4.60537303 7.22699368 2.8009217 7.12212755 1 7 C0.34 6.34 -0.32 5.68 -1 5 C-0.67 3.35 -0.34 1.7 0 0 Z " fill="#D2FCF7" transform="translate(233,413)"/>
<path d="M0 0 C11.55 0 23.1 0 35 0 C35 2.31 35 4.62 35 7 C30.19453321 7.07405295 25.3893971 7.12855497 20.58349609 7.16479492 C18.94802059 7.17989911 17.31258571 7.20038389 15.67724609 7.22631836 C13.32899976 7.26263145 10.98128795 7.27970932 8.6328125 7.29296875 C7.53273361 7.31619453 7.53273361 7.31619453 6.41043091 7.33988953 C4.34814453 7.34057617 4.34814453 7.34057617 1 7 C0.34 6.01 -0.32 5.02 -1 4 C-0.67 2.68 -0.34 1.36 0 0 Z " fill="#D4FCF7" transform="translate(233,438)"/>
<path d="M0 0 C0.71353638 0.00202423 1.42707275 0.00404846 2.16223145 0.00613403 C2.89091431 0.00517731 3.61959717 0.00422058 4.37036133 0.00323486 C5.91377855 0.00255318 7.45719861 0.00440666 9.00061035 0.00857544 C11.37095544 0.01392391 13.74111104 0.00863011 16.1114502 0.00222778 C17.60754437 0.00288857 19.10363842 0.00416973 20.59973145 0.00613403 C21.31326782 0.0041098 22.0268042 0.00208557 22.76196289 0 C27.76602953 0.02399462 27.76602953 0.02399462 28.88098145 1.13894653 C28.92178927 3.13853017 28.92352501 5.13939907 28.88098145 7.13894653 C24.07549547 7.18831536 19.27015651 7.22465096 14.46447754 7.24880981 C12.82903472 7.25887908 11.19360995 7.27253534 9.55822754 7.28982544 C7.21003775 7.31403358 4.86208557 7.32542011 2.51379395 7.33425903 C1.41371506 7.34974289 1.41371506 7.34974289 0.29141235 7.36553955 C-1.51364553 7.36594022 -3.31809685 7.26107408 -5.11901855 7.13894653 C-5.77901855 6.47894653 -6.43901855 5.81894653 -7.11901855 5.13894653 C-6.34282823 0.01609038 -4.97694175 0.02386456 0 0 Z " fill="#D1FCF7" transform="translate(239.1190185546875,374.8610534667969)"/>
<path d="M0 0 C2.25 0.9375 2.25 0.9375 3.25 2.9375 C4.36375 2.89625 5.4775 2.855 6.625 2.8125 C10.25 2.9375 10.25 2.9375 12.25 4.9375 C11.91115445 12.05325663 11.91115445 12.05325663 9.9765625 14.640625 C7.86204172 16.22890758 6.43162767 16.48941226 3.8125 16.75 C3.05066406 16.83894531 2.28882813 16.92789062 1.50390625 17.01953125 C-1.20232256 16.92103765 -2.55752647 16.53842821 -4.75 14.9375 C-5.796875 12.5546875 -5.796875 12.5546875 -6.5 9.8125 C-6.86351562 8.44738281 -6.86351562 8.44738281 -7.234375 7.0546875 C-7.40453125 6.35601562 -7.5746875 5.65734375 -7.75 4.9375 C-3.4677814 -0.07881321 -3.4677814 -0.07881321 0 0 Z " fill="#F7E5C7" transform="translate(177.75,403.0625)"/>
<path d="M0 0 C1.47583955 0.0001591 2.95168467 0.00585225 4.42749023 0.01586914 C5.20293686 0.01728409 5.97838348 0.01869904 6.77732849 0.02015686 C9.26361893 0.02577194 11.74982059 0.03832693 14.23608398 0.05102539 C15.91772331 0.05603845 17.59936405 0.06060169 19.28100586 0.06469727 C23.41189965 0.07574626 27.54272674 0.09302094 31.67358398 0.11352539 C31.67358398 2.09352539 31.67358398 4.07352539 31.67358398 6.11352539 C20.12358398 6.11352539 8.57358398 6.11352539 -3.32641602 6.11352539 C-3.65641602 4.46352539 -3.98641602 2.81352539 -4.32641602 1.11352539 C-3.32641602 0.11352539 -3.32641602 0.11352539 0 0 Z " fill="#CEFCF7" transform="translate(236.326416015625,425.886474609375)"/>
<path d="M0 0 C1.47583955 0.0001591 2.95168467 0.00585225 4.42749023 0.01586914 C5.20293686 0.01728409 5.97838348 0.01869904 6.77732849 0.02015686 C9.26361893 0.02577194 11.74982059 0.03832693 14.23608398 0.05102539 C15.91772331 0.05603845 17.59936405 0.06060169 19.28100586 0.06469727 C23.41189965 0.07574626 27.54272674 0.09302094 31.67358398 0.11352539 C31.67358398 2.09352539 31.67358398 4.07352539 31.67358398 6.11352539 C20.12358398 6.11352539 8.57358398 6.11352539 -3.32641602 6.11352539 C-3.65641602 4.46352539 -3.98641602 2.81352539 -4.32641602 1.11352539 C-3.32641602 0.11352539 -3.32641602 0.11352539 0 0 Z " fill="#D0FCF7" transform="translate(236.326416015625,400.886474609375)"/>
<path d="M0 0 C1.4282618 0.00031703 2.85654759 0.01163717 4.28466797 0.03173828 C5.41242142 0.03598312 5.41242142 0.03598312 6.56295776 0.04031372 C8.96775125 0.05152204 11.37217428 0.07662726 13.77685547 0.10205078 C15.40575635 0.11207976 17.03466305 0.12120576 18.66357422 0.12939453 C22.65981103 0.15146343 26.65577041 0.18599728 30.65185547 0.22705078 C30.65185547 2.20705078 30.65185547 4.18705078 30.65185547 6.22705078 C19.10185547 6.22705078 7.55185547 6.22705078 -4.34814453 6.22705078 C-4.67814453 4.90705078 -5.00814453 3.58705078 -5.34814453 2.22705078 C-3.34814453 0.22705078 -3.34814453 0.22705078 0 0 Z " fill="#D0FCF6" transform="translate(237.34814453125,387.77294921875)"/>
<path d="M0 0 C0.99 0.33 1.98 0.66 3 1 C3.09796875 1.95261719 3.1959375 2.90523438 3.296875 3.88671875 C3.52117187 5.76810547 3.52117187 5.76810547 3.75 7.6875 C3.88921875 8.92886719 4.0284375 10.17023438 4.171875 11.44921875 C5.07527964 15.32277923 6.25194598 17.17328031 9 20 C11.9313883 21.46569415 14.88632266 21.62086218 18.125 22.0625 C20.04699219 22.32740234 20.04699219 22.32740234 22.0078125 22.59765625 C23.48894531 22.79681641 23.48894531 22.79681641 25 23 C25.33 24.32 25.66 25.64 26 27 C23.10315842 27.10829314 20.21038981 27.18743954 17.3125 27.25 C16.49587891 27.28351563 15.67925781 27.31703125 14.83789062 27.3515625 C10.75748271 27.41764198 8.59635291 27.37351359 5.0625 25.16015625 C-1.32170099 18.47367301 -1.40345912 13.01764319 -1.23828125 4.1328125 C-1 1 -1 1 0 0 Z " fill="#D0F7F4" transform="translate(420,280)"/>
<path d="M0 0 C0.7734375 0.08507812 1.546875 0.17015625 2.34375 0.2578125 C4.92429661 0.99644722 5.9615519 1.67650804 7.5 3.875 C7.6796875 6.06640625 7.6796875 6.06640625 7.375 8.4375 C7.28992188 9.22253906 7.20484375 10.00757813 7.1171875 10.81640625 C6.5 12.875 6.5 12.875 3.5 14.875 C0.48310293 15.21021079 -1.59775379 15.43446915 -4.5 14.875 C-7.0625 12.8125 -7.0625 12.8125 -8.5 9.875 C-8.44013147 6.40262498 -8.3271494 3.9879839 -6.22265625 1.15625 C-3.94344746 -0.53894384 -2.78243652 -0.36171675 0 0 Z " fill="#D5F5F7" transform="translate(222.5,238.125)"/>
<path d="M0 0 C0.94875 0.04125 1.8975 0.0825 2.875 0.125 C2.545 1.115 2.215 2.105 1.875 3.125 C2.51308594 3.32996094 3.15117188 3.53492188 3.80859375 3.74609375 C4.63488281 4.01550781 5.46117188 4.28492188 6.3125 4.5625 C7.13621094 4.82933594 7.95992187 5.09617187 8.80859375 5.37109375 C10.875 6.125 10.875 6.125 11.875 7.125 C11.41774354 13.29796223 11.41774354 13.29796223 9.5625 16.125 C7.875 17.125 7.875 17.125 6.09765625 16.84765625 C3.4553478 15.98855772 1.09648604 14.83076258 -1.375 13.5625 C-2.26703125 13.10746094 -3.1590625 12.65242188 -4.078125 12.18359375 C-4.75359375 11.83425781 -5.4290625 11.48492187 -6.125 11.125 C-6.01090407 9.66577307 -5.88334456 8.20759402 -5.75 6.75 C-5.68039063 5.93789063 -5.61078125 5.12578125 -5.5390625 4.2890625 C-4.83439539 0.60617971 -3.65257212 0.14610288 0 0 Z " fill="#F8E5C4" transform="translate(95.125,432.875)"/>
<path d="M0 0 C2.37625177 -0.10883596 4.74743976 -0.18766696 7.125 -0.25 C7.79015625 -0.28351563 8.4553125 -0.31703125 9.140625 -0.3515625 C14.29011628 -0.45253292 17.04325131 0.78223231 21 4 C26.4472074 10.45064034 25.36993583 18.01555177 25 26 C24.01 26 23.02 26 22 26 C21.81824219 24.87980469 21.63648438 23.75960937 21.44921875 22.60546875 C21.19594079 21.13270431 20.94199984 19.66005378 20.6875 18.1875 C20.56955078 17.44951172 20.45160156 16.71152344 20.33007812 15.95117188 C19.60344863 11.81032563 19.60344863 11.81032563 17.70703125 8.11328125 C13.62471505 5.45090112 9.45460958 4.60840147 4.6875 3.875 C3.61886719 3.70742187 2.55023437 3.53984375 1.44921875 3.3671875 C0.64097656 3.24601563 -0.16726563 3.12484375 -1 3 C-0.67 2.01 -0.34 1.02 0 0 Z " fill="#CBE9F0" transform="translate(596,165)"/>
<path d="M0 0 C2.625 0.25 2.625 0.25 4.5 1.5625 C5.625 3.25 5.625 3.25 5.625 6.25 C-1.25081298 8.4091338 -7.16028371 9.60482211 -14.375 9.25 C-14.375 8.26 -14.375 7.27 -14.375 6.25 C-15.365 5.92 -16.355 5.59 -17.375 5.25 C-12.13308292 0.00808292 -6.93841394 0.51395659 0 0 Z " fill="#7759E2" transform="translate(251.375,578.75)"/>
<path d="M0 0 C1.07636719 0.00322266 2.15273437 0.00644531 3.26171875 0.00976562 C4.38964844 0.01814453 5.51757812 0.02652344 6.6796875 0.03515625 C7.81535156 0.03966797 8.95101562 0.04417969 10.12109375 0.04882812 C12.93234388 0.0606401 15.7434898 0.07711118 18.5546875 0.09765625 C16.8046875 3.97265625 16.8046875 3.97265625 14.5546875 5.09765625 C12.8142458 5.18215253 11.07059028 5.20488649 9.328125 5.1953125 C8.296875 5.19208984 7.265625 5.18886719 6.203125 5.18554688 C4.58277344 5.17297852 4.58277344 5.17297852 2.9296875 5.16015625 C1.29773438 5.15338867 1.29773438 5.15338867 -0.3671875 5.14648438 C-3.05995039 5.13467401 -5.75260438 5.11820403 -8.4453125 5.09765625 C-8.0703125 3.16015625 -8.0703125 3.16015625 -7.4453125 1.09765625 C-4.83580014 -0.20709993 -2.91829965 -0.01535947 0 0 Z " fill="#765EE6" transform="translate(91.4453125,461.90234375)"/>
<path d="M0 0 C0.90105469 0.02707031 1.80210937 0.05414062 2.73046875 0.08203125 C3.76107422 0.13423828 3.76107422 0.13423828 4.8125 0.1875 C4.4825 2.1675 4.1525 4.1475 3.8125 6.1875 C0.5125 5.1975 -2.7875 4.2075 -6.1875 3.1875 C-6.1875 3.8475 -6.1875 4.5075 -6.1875 5.1875 C-1.7325 6.1775 -1.7325 6.1775 2.8125 7.1875 C2.4825 8.1775 2.1525 9.1675 1.8125 10.1875 C-2.1475 10.1875 -6.1075 10.1875 -10.1875 10.1875 C-8.50054914 3.30993109 -7.56516222 -0.29474658 0 0 Z " fill="#77A5C6" transform="translate(169.1875,578.8125)"/>
<path d="M0 0 C0.66 0 1.32 0 2 0 C2 0.66 2 1.32 2 2 C2.99 2 3.98 2 5 2 C5.33 1.34 5.66 0.68 6 0 C7.66666667 0 9.33333333 0 11 0 C10.96519531 0.93972656 10.96519531 0.93972656 10.9296875 1.8984375 C10.91164063 2.71570313 10.89359375 3.53296875 10.875 4.375 C10.85179687 5.18710937 10.82859375 5.99921875 10.8046875 6.8359375 C10.78629949 9.21342243 10.78629949 9.21342243 13 11 C14 14 14 14 13 17 C12.34 17 11.68 17 11 17 C10.67 15.35 10.34 13.7 10 12 C9.0925 12.103125 8.185 12.20625 7.25 12.3125 C4 12 4 12 1.625 9.5 C1.08875 8.675 0.5525 7.85 0 7 C3.99904969 7 5.80200422 8.72586967 9 11 C8.34 8.69 7.68 6.38 7 4 C4.03 3.505 4.03 3.505 1 3 C0.67 2.01 0.34 1.02 0 0 Z " fill="#C6F7F0" transform="translate(554,507)"/>
<path d="M0 0 C2.1015625 0.05859375 2.1015625 0.05859375 4.625 0.4375 C8.09871742 0.88928406 10.93706826 0.97165233 14.375 0.3125 C18 0 18 0 20.4375 1.8125 C22 4 22 4 23 6 C24.97888961 6.72693904 26.97954558 7.39816251 29 8 C28.67 8.99 28.34 9.98 28 11 C27.505 10.01 27.505 10.01 27 9 C26.030625 8.71125 25.06125 8.4225 24.0625 8.125 C21 7 21 7 19.80859375 4.9296875 C19.54175781 4.29289062 19.27492188 3.65609375 19 3 C18.11957031 3.01160156 17.23914063 3.02320313 16.33203125 3.03515625 C14.58986328 3.04869141 14.58986328 3.04869141 12.8125 3.0625 C11.66394531 3.07410156 10.51539062 3.08570313 9.33203125 3.09765625 C6.40699414 3.01192832 3.83683709 2.67849023 1 2 C-0.99097846 4.98646769 -1.94124926 7.59687262 -3 11 C-5.97 11 -8.94 11 -12 11 C-11.67 10.34 -11.34 9.68 -11 9 C-8.69 9 -6.38 9 -4 9 C-3.71125 7.88625 -3.4225 6.7725 -3.125 5.625 C-2 2 -2 2 0 0 Z " fill="#755F34" transform="translate(89,308)"/>
<path d="M0 0 C2.375 0.75 2.375 0.75 3.375 1.75 C3.5625 4.1875 3.5625 4.1875 3.375 6.75 C1.375 8.75 1.375 8.75 -1.625 8.9375 C-4.625 8.75 -4.625 8.75 -6.625 7.75 C-6.26303085 5.07142828 -5.88512724 3.14019086 -4.375 0.875 C-2.625 -0.25 -2.625 -0.25 0 0 Z " fill="#D0EFF6" transform="translate(153.625,440.25)"/>
<path d="M0 0 C8.19256018 -0.4726477 8.19256018 -0.4726477 11.5625 1.5 C12.036875 1.995 12.51125 2.49 13 3 C12.67 4.32 12.34 5.64 12 7 C8.04 6.67 4.08 6.34 0 6 C0 4.02 0 2.04 0 0 Z " fill="#7A57EC" transform="translate(186,588)"/>
<path d="M0 0 C1.37478516 0.01740234 1.37478516 0.01740234 2.77734375 0.03515625 C3.69644531 0.04417969 4.61554688 0.05320312 5.5625 0.0625 C6.27277344 0.07410156 6.98304688 0.08570313 7.71484375 0.09765625 C7.83984375 2.47265625 7.83984375 2.47265625 7.71484375 5.09765625 C5.71484375 7.09765625 5.71484375 7.09765625 3.76953125 7.29296875 C1.75130208 7.22786458 -0.26692708 7.16276042 -2.28515625 7.09765625 C-2.66648924 5.10625065 -2.99841207 3.10486548 -3.28515625 1.09765625 C-2.28515625 0.09765625 -2.28515625 0.09765625 0 0 Z " fill="#D7FBF7" transform="translate(276.28515625,412.90234375)"/>
<path d="M0 0 C0.99 0.33 1.98 0.66 3 1 C3 2.65 3 4.3 3 6 C3.99 6 4.98 6 6 6 C5.67 6.99 5.34 7.98 5 9 C3.15234375 9.73046875 3.15234375 9.73046875 0.9375 10.1875 C0.20402344 10.34605469 -0.52945313 10.50460937 -1.28515625 10.66796875 C-1.85105469 10.77753906 -2.41695312 10.88710938 -3 11 C-3 10.34 -3 9.68 -3 9 C-5.64 8.01 -8.28 7.02 -11 6 C-11 5.34 -11 4.68 -11 4 C-6.545 4.99 -6.545 4.99 -2 6 C-1.34 4.02 -0.68 2.04 0 0 Z " fill="#7F91D2" transform="translate(174,578)"/>
<path d="M0 0 C2.1640625 0.0234375 2.1640625 0.0234375 4.625 0.375 C5.85089844 0.54128906 5.85089844 0.54128906 7.1015625 0.7109375 C7.72804688 0.80632812 8.35453125 0.90171875 9 1 C9 2.98 9 4.96 9 7 C6.03 7 3.06 7 0 7 C-0.66 5.35 -1.32 3.7 -2 2 C-1.34 1.34 -0.68 0.68 0 0 Z " fill="#D4FBF5" transform="translate(275,375)"/>
<path d="M0 0 C1.23556641 0.01740234 1.23556641 0.01740234 2.49609375 0.03515625 C3.32238281 0.04417969 4.14867187 0.05320312 5 0.0625 C5.63808594 0.07410156 6.27617187 0.08570313 6.93359375 0.09765625 C7.55859375 1.91015625 7.55859375 1.91015625 7.93359375 4.09765625 C6.94359375 5.58265625 6.94359375 5.58265625 5.93359375 7.09765625 C2.30859375 7.28515625 2.30859375 7.28515625 -1.06640625 7.09765625 C-1.72640625 5.11765625 -2.38640625 3.13765625 -3.06640625 1.09765625 C-2.06640625 0.09765625 -2.06640625 0.09765625 0 0 Z " fill="#D5FBF7" transform="translate(276.06640625,437.90234375)"/>
<path d="M0 0 C1.37478516 0.01740234 1.37478516 0.01740234 2.77734375 0.03515625 C3.69644531 0.04417969 4.61554688 0.05320312 5.5625 0.0625 C6.27277344 0.07410156 6.98304688 0.08570313 7.71484375 0.09765625 C7.71484375 2.07765625 7.71484375 4.05765625 7.71484375 6.09765625 C4.08484375 6.09765625 0.45484375 6.09765625 -3.28515625 6.09765625 C-3.28515625 0.14039129 -3.28515625 0.14039129 0 0 Z " fill="#D2FBF7" transform="translate(276.28515625,425.90234375)"/>
<path d="M0 0 C0 2.31 0 4.62 0 7 C-3.3 6.67 -6.6 6.34 -10 6 C-10 5.01 -10 4.02 -10 3 C-10.99 2.67 -11.98 2.34 -13 2 C-4.57142857 -0.28571429 -4.57142857 -0.28571429 0 0 Z " fill="#E6D7BD" transform="translate(229,576)"/>
<path d="M0 0 C1.37478516 0.01740234 1.37478516 0.01740234 2.77734375 0.03515625 C3.69644531 0.04417969 4.61554688 0.05320312 5.5625 0.0625 C6.27277344 0.07410156 6.98304688 0.08570313 7.71484375 0.09765625 C7.71484375 2.07765625 7.71484375 4.05765625 7.71484375 6.09765625 C4.41484375 6.09765625 1.11484375 6.09765625 -2.28515625 6.09765625 C-2.66734392 4.44150968 -2.99910727 2.77308601 -3.28515625 1.09765625 C-2.28515625 0.09765625 -2.28515625 0.09765625 0 0 Z " fill="#D4FBF5" transform="translate(276.28515625,387.90234375)"/>
<path d="M0 0 C1.37478516 0.01740234 1.37478516 0.01740234 2.77734375 0.03515625 C3.69644531 0.04417969 4.61554688 0.05320312 5.5625 0.0625 C6.27277344 0.07410156 6.98304688 0.08570313 7.71484375 0.09765625 C7.71484375 2.07765625 7.71484375 4.05765625 7.71484375 6.09765625 C4.41484375 6.09765625 1.11484375 6.09765625 -2.28515625 6.09765625 C-2.66734392 4.44150968 -2.99910727 2.77308601 -3.28515625 1.09765625 C-2.28515625 0.09765625 -2.28515625 0.09765625 0 0 Z " fill="#D5FBF6" transform="translate(276.28515625,400.90234375)"/>
<path d="M0 0 C0.33 0 0.66 0 1 0 C0.67 4.95 0.34 9.9 0 15 C-4 12 -4 12 -4.5 8.625 C-3.93461158 4.52593394 -2.8918538 2.8918538 0 0 Z " fill="#E7F9F1" transform="translate(62,405)"/>
<path d="M0 0 C7.75 0.75 7.75 0.75 10 3 C8.35 4.32 6.7 5.64 5 7 C2.525 6.01 2.525 6.01 0 5 C0 3.35 0 1.7 0 0 Z " fill="#8B9EE1" transform="translate(230,577)"/>
<path d="M0 0 C0.91007813 0.00902344 1.82015625 0.01804687 2.7578125 0.02734375 C3.45648438 0.03894531 4.15515625 0.05054688 4.875 0.0625 C4.545 2.0425 4.215 4.0225 3.875 6.0625 C0.245 5.0725 -3.385 4.0825 -7.125 3.0625 C-7.125 2.4025 -7.125 1.7425 -7.125 1.0625 C-4.60024538 -0.19987731 -2.81299534 -0.03606404 0 0 Z " fill="#ECDCC4" transform="translate(169.125,578.9375)"/>
<path d="M0 0 C1 1 1 1 1.09765625 3.28515625 C1.08605469 4.20167969 1.07445312 5.11820313 1.0625 6.0625 C1.05347656 6.98160156 1.04445313 7.90070312 1.03515625 8.84765625 C1.02355469 9.55792969 1.01195312 10.26820313 1 11 C-1 9 -1 9 -1.125 6.375 C-1.08375 5.59125 -1.0425 4.8075 -1 4 C-2.134375 3.87625 -3.26875 3.7525 -4.4375 3.625 C-5.613125 3.41875 -6.78875 3.2125 -8 3 C-8.33 2.34 -8.66 1.68 -9 1 C-6.01787087 -0.49106457 -3.28390342 -0.11941467 0 0 Z " fill="#C8F7F2" transform="translate(573,546)"/>
<path d="M0 0 C-2.43272336 4.74381055 -2.43272336 4.74381055 -4.9375 5.875 C-7.17912267 6.01085592 -8.86994118 5.68466176 -11 5 C-11 4.01 -11 3.02 -11 2 C-7.17679443 0.57741188 -4.08718695 -0.24042276 0 0 Z " fill="#3E1C76" transform="translate(257,585)"/>
<path d="M0 0 C3.63 0 7.26 0 11 0 C11.33 0.66 11.66 1.32 12 2 C8.64672361 4.23551759 8.09256343 4.17283528 4.3125 3.625 C3.50425781 3.51414062 2.69601563 3.40328125 1.86328125 3.2890625 C1.24839844 3.19367187 0.63351563 3.09828125 0 3 C0 2.01 0 1.02 0 0 Z " fill="#310F6E" transform="translate(186,594)"/>
<path d="M0 0 C4.75 0.875 4.75 0.875 7 2 C6.67 3.32 6.34 4.64 6 6 C3.03 5.505 3.03 5.505 0 5 C0 3.35 0 1.7 0 0 Z " fill="#743CE5" transform="translate(192,589)"/>
<path d="M0 0 C0.99 0 1.98 0 3 0 C2.34 5.28 1.68 10.56 1 16 C0.67 16 0.34 16 0 16 C0 10.72 0 5.44 0 0 Z " fill="#614312" transform="translate(179,510)"/>
<path d="M0 0 C1.46179688 0.33064453 1.46179688 0.33064453 2.953125 0.66796875 C3.93796875 0.88066406 4.9228125 1.09335937 5.9375 1.3125 C6.68515625 1.49167969 7.4328125 1.67085938 8.203125 1.85546875 C8.203125 2.18546875 8.203125 2.51546875 8.203125 2.85546875 C3.253125 2.85546875 -1.696875 2.85546875 -6.796875 2.85546875 C-2.796875 -0.14453125 -2.796875 -0.14453125 0 0 Z " fill="#D2BDA8" transform="translate(176.796875,419.14453125)"/>
<path d="M0 0 C5.75 0.875 5.75 0.875 8 2 C8 2.66 8 3.32 8 4 C2.25 3.125 2.25 3.125 0 2 C0 1.34 0 0.68 0 0 Z " fill="#5C578C" transform="translate(163,582)"/>
<path d="M0 0 C1 3 1 3 0 6 C-1.65 5.67 -3.3 5.34 -5 5 C-3.35 3.35 -1.7 1.7 0 0 Z " fill="#6C6AD2" transform="translate(239,580)"/>
</svg>
