<svg xmlns="http://www.w3.org/2000/svg" version="1.1" xmlns:xlink="http://www.w3.org/1999/xlink" xmlns:svgjs="http://svgjs.dev/svgjs" width="1464" height="582" preserveAspectRatio="none" viewBox="0 0 1464 582"><g mask="url(&quot;#SvgjsMask1052&quot;)" fill="none"><path d="M131.55 626.5C287.81 598.7 356.03 214.8 610.38 209.63 864.73 204.46 849.79 282.38 1089.21 282.38 1328.63 282.38 1446.96 209.84 1568.04 209.63" stroke="rgba(65, 64, 64, 1)" stroke-width="2"></path><path d="M794 593.33C930.51 507.52 859.6 30.04 1101.75 26.55 1343.91 23.06 1548.98 294.02 1717.26 300.09" stroke="rgba(65, 64, 64, 1)" stroke-width="2"></path><path d="M914.6 590.73C1060.18 539.34 1099.01 109.6 1299.02 107.41 1499.02 105.22 1567.77 357.26 1683.43 369.31" stroke="rgba(65, 64, 64, 1)" stroke-width="2"></path><path d="M373.55 642.22C523.55 569.87 446.94 90.8 737.91 84.56 1028.87 78.32 1280.26 240.81 1466.62 241.7" stroke="rgba(65, 64, 64, 1)" stroke-width="2"></path><path d="M216.61 666.67C392.85 605.46 418.33 100.98 683.9 84.82 949.48 68.66 917.55 157.57 1151.2 157.57 1384.84 157.57 1500.26 85.04 1618.49 84.82" stroke="rgba(65, 64, 64, 1)" stroke-width="2"></path></g><defs><mask id="SvgjsMask1052"><rect width="1464" height="582" fill="#ffffff"></rect></mask></defs></svg>